<svg width="16" height="16" viewBox="0 0 16 16" fill="none" xmlns="http://www.w3.org/2000/svg">
<path fill-rule="evenodd" clip-rule="evenodd" d="M4.33332 3.16667H11.6667C12.311 3.16667 12.8333 3.689 12.8333 4.33334V11.6667C12.8333 12.311 12.311 12.8333 11.6667 12.8333H4.33332C3.68899 12.8333 3.16666 12.311 3.16666 11.6667V4.33334C3.16666 3.689 3.68899 3.16667 4.33332 3.16667ZM11.6667 2.33334C12.7712 2.33334 13.6667 3.22877 13.6667 4.33334V11.6667C13.6667 12.7712 12.7712 13.6667 11.6667 13.6667H4.33332C3.22875 13.6667 2.33332 12.7712 2.33332 11.6667V4.33334C2.33332 3.22877 3.22875 2.33334 4.33332 2.33334H11.6667Z" fill="#061B2D"/>
<path d="M4.29672 11.0182C4.29672 11.0733 4.31863 11.1262 4.35761 11.1652C4.3966 11.2042 4.44947 11.2261 4.5046 11.2261H7.55352C7.60865 11.2261 7.66153 11.2042 7.70051 11.1652C7.7395 11.1262 7.7614 11.0733 7.7614 11.0182C7.7614 10.963 7.7395 10.9102 7.70051 10.8712C7.66153 10.8322 7.60865 10.8103 7.55352 10.8103H4.5046C4.44947 10.8103 4.3966 10.8322 4.35761 10.8712C4.31863 10.9102 4.29672 10.963 4.29672 11.0182ZM7.55352 10.1174H4.5046C4.44947 10.1174 4.3966 10.0955 4.35761 10.0565C4.31863 10.0175 4.29672 9.96461 4.29672 9.90948C4.29672 9.85435 4.31863 9.80147 4.35761 9.76249C4.3966 9.7235 4.44947 9.7016 4.5046 9.7016H7.55352C7.60865 9.7016 7.66153 9.7235 7.70051 9.76249C7.7395 9.80147 7.7614 9.85435 7.7614 9.90948C7.7614 9.96461 7.7395 10.0175 7.70051 10.0565C7.66153 10.0955 7.60865 10.1174 7.55352 10.1174Z" fill="#061B2D"/>
<path fill-rule="evenodd" clip-rule="evenodd" d="M4.16339 11.0182C4.16339 11.1087 4.19934 11.1955 4.26333 11.2595C4.32732 11.3234 4.41411 11.3594 4.5046 11.3594H7.55352C7.64401 11.3594 7.7308 11.3234 7.79479 11.2595C7.85878 11.1955 7.89473 11.1087 7.89473 11.0182C7.89473 10.9277 7.85878 10.8409 7.79479 10.7769C7.7308 10.7129 7.64401 10.677 7.55352 10.677H4.5046C4.41411 10.677 4.32732 10.7129 4.26333 10.7769C4.19934 10.8409 4.16339 10.9277 4.16339 11.0182ZM4.5046 10.2507H7.55352C7.64401 10.2507 7.7308 10.2147 7.79479 10.1508C7.85878 10.0868 7.89473 9.99998 7.89473 9.90948C7.89473 9.81899 7.85878 9.7322 7.79479 9.66821C7.7308 9.60422 7.64401 9.56827 7.55352 9.56827H4.5046C4.41411 9.56827 4.32732 9.60422 4.26333 9.66821C4.19934 9.7322 4.16339 9.81899 4.16339 9.90948C4.16339 9.99998 4.19934 10.0868 4.26333 10.1508C4.32732 10.2147 4.41411 10.2507 4.5046 10.2507ZM4.35761 11.1652C4.31863 11.1262 4.29672 11.0733 4.29672 11.0182C4.29672 10.963 4.31863 10.9102 4.35761 10.8712C4.3966 10.8322 4.44947 10.8103 4.5046 10.8103H7.55352C7.60865 10.8103 7.66153 10.8322 7.70051 10.8712C7.7395 10.9102 7.7614 10.963 7.7614 11.0182C7.7614 11.0733 7.7395 11.1262 7.70051 11.1652C7.66153 11.2042 7.60865 11.2261 7.55352 11.2261H4.5046C4.44947 11.2261 4.3966 11.2042 4.35761 11.1652ZM4.5046 10.1174H7.55352C7.60865 10.1174 7.66153 10.0955 7.70051 10.0565C7.7395 10.0175 7.7614 9.96461 7.7614 9.90948C7.7614 9.85435 7.7395 9.80147 7.70051 9.76249C7.66153 9.7235 7.60865 9.7016 7.55352 9.7016H4.5046C4.44947 9.7016 4.3966 9.7235 4.35761 9.76249C4.31863 9.80147 4.29672 9.85435 4.29672 9.90948C4.29672 9.96461 4.31863 10.0175 4.35761 10.0565C4.3966 10.0955 4.44947 10.1174 4.5046 10.1174Z" fill="#061B2D"/>
<path d="M8.22361 5.74281C8.59991 6.54449 8.92713 6.9028 9.28412 6.9028C9.73634 6.9028 10.0007 6.33933 10.2805 5.74281C10.3973 5.49216 10.5195 5.23398 10.644 5.04959C10.7509 4.89187 10.8468 4.80859 10.9209 4.80859C10.9834 4.80859 11.2193 4.876 11.6259 5.74281C11.648 5.78995 11.6879 5.82637 11.7369 5.84406C11.7612 5.85282 11.7869 5.85672 11.8127 5.85553C11.8385 5.85434 11.8637 5.84808 11.8871 5.83713C11.9342 5.815 11.9706 5.77504 11.9883 5.72606C12.006 5.67707 12.0035 5.62307 11.9814 5.57592C11.6051 4.77424 11.2779 4.41593 10.9209 4.41593C10.4687 4.41593 10.2043 4.9794 9.92449 5.57592C9.80686 5.82657 9.68546 6.08557 9.56095 6.26914C9.45411 6.42686 9.35824 6.51013 9.28281 6.51013C9.22031 6.51013 8.98439 6.44273 8.57782 5.57592C8.55569 5.52878 8.51574 5.49236 8.46675 5.47467C8.41777 5.45698 8.36376 5.45947 8.31662 5.4816C8.26947 5.50373 8.23305 5.54368 8.21536 5.59267C8.19767 5.64165 8.20017 5.69566 8.2223 5.74281H8.22361Z" fill="#061B2D"/>
<path fill-rule="evenodd" clip-rule="evenodd" d="M8.22229 5.74281C8.20016 5.69566 8.19767 5.64166 8.21536 5.59267C8.23305 5.54369 8.26947 5.50373 8.31661 5.48161C8.36376 5.45948 8.41776 5.45698 8.46675 5.47467C8.51573 5.49236 8.55569 5.52878 8.57782 5.57593C8.98439 6.44273 9.22031 6.51014 9.28281 6.51014C9.35824 6.51014 9.45411 6.42686 9.56095 6.26914C9.68496 6.0863 9.80589 5.82862 9.92309 5.5789L9.92449 5.57593C10.2043 4.97941 10.4687 4.41593 10.9209 4.41593C11.2779 4.41593 11.6051 4.77424 11.9814 5.57593C12.0035 5.62307 12.006 5.67708 11.9883 5.72606C11.9706 5.77505 11.9342 5.815 11.8871 5.83713C11.8637 5.84809 11.8384 5.85434 11.8127 5.85553C11.7869 5.85672 11.7612 5.85282 11.7369 5.84407C11.6879 5.82638 11.648 5.78995 11.6259 5.74281C11.2193 4.876 10.9834 4.8086 10.9209 4.8086C10.8468 4.8086 10.7509 4.89187 10.644 5.04959C10.5195 5.23398 10.3973 5.49216 10.2805 5.74281C10.0007 6.33933 9.73634 6.9028 9.28412 6.9028C8.92712 6.9028 8.5999 6.54449 8.2236 5.74281H8.22229ZM8.13939 5.87614H8.13759L8.1016 5.79946C8.06444 5.72031 8.06025 5.62963 8.08995 5.54739C8.11965 5.46514 8.1808 5.39806 8.25996 5.36091C8.33912 5.32375 8.42979 5.31956 8.51203 5.34926C8.59428 5.37896 8.66136 5.44011 8.69851 5.51927C8.89899 5.94668 9.05256 6.16612 9.15652 6.27679C9.22693 6.35175 9.2689 6.37107 9.2826 6.37572C9.28813 6.37336 9.30131 6.36663 9.32276 6.34804C9.35742 6.31799 9.40063 6.26806 9.45056 6.19436C9.56787 6.0214 9.68458 5.77328 9.80379 5.51928L9.80746 5.51145C9.94448 5.21929 10.0851 4.91952 10.2504 4.69351C10.4172 4.46544 10.6311 4.2826 10.9209 4.2826C11.1499 4.2826 11.354 4.39932 11.5423 4.60534C11.7293 4.80988 11.9119 5.11413 12.1021 5.51927C12.1392 5.59843 12.1434 5.6891 12.1137 5.77135C12.084 5.85359 12.0229 5.92067 11.9437 5.95783C11.9045 5.97622 11.8621 5.98672 11.8188 5.98872C11.7756 5.99072 11.7324 5.98418 11.6916 5.96947C11.6094 5.93977 11.5423 5.87862 11.5052 5.79946C11.3047 5.37205 11.1511 5.15261 11.0472 5.04194C10.9774 4.96768 10.9356 4.94803 10.9215 4.94315C10.9159 4.94566 10.903 4.95252 10.8822 4.97054C10.8476 5.00065 10.8044 5.05064 10.7545 5.12426C10.6371 5.29821 10.5193 5.54604 10.4014 5.79913L10.3975 5.80729C10.2605 6.09945 10.1199 6.39922 9.95459 6.62522C9.78775 6.85329 9.5739 7.03613 9.28412 7.03613C9.05512 7.03613 8.85099 6.91942 8.66268 6.71339C8.48772 6.52196 8.31651 6.24321 8.13939 5.87614Z" fill="#061B2D"/>
<path fill-rule="evenodd" clip-rule="evenodd" d="M12.1211 13.1515L2.84837 3.87875L3.43762 3.2895L12.7103 12.5622L12.1211 13.1515Z" fill="#061B2D"/>
</svg>
