<svg width="16" height="16" viewBox="0 0 16 16" fill="none" xmlns="http://www.w3.org/2000/svg">
<path d="M13.5333 7.5C13.5333 6.04131 12.9539 4.64236 11.9224 3.61091C10.891 2.57946 9.49202 2 8.03333 2C6.57464 2 5.1757 2.57946 4.14425 3.61091C3.1128 4.64236 2.53333 6.04131 2.53333 7.5C2.53333 9.89556 4.06111 11.9244 6.2 12.6944V14.2222H7.42222V12.9633C7.62389 13 7.82555 13 8.03333 13C8.24111 13 8.44278 13 8.64444 12.9633V14.2222H9.86667V12.6944C12.0056 11.9244 13.5333 9.89556 13.5333 7.5ZM8.03333 11.7778C5.67444 11.7778 3.75556 9.85889 3.75556 7.5C3.75556 5.14111 5.67444 3.22222 8.03333 3.22222C10.3922 3.22222 12.3111 5.14111 12.3111 7.5C12.3111 9.85889 10.3922 11.7778 8.03333 11.7778ZM5.58889 5.05556H10.4778V6.27778H5.58889V5.05556ZM8.49167 6.88889L6.65833 8.72222L7.42222 9.48611L6.65833 10.25L7.575 11.1667L9.40833 9.33333L8.64444 8.56944L9.40833 7.80556L8.49167 6.88889Z" fill="#061B2D"/>
</svg>
