<svg width="46" height="65" viewBox="0 0 46 65" fill="none" xmlns="http://www.w3.org/2000/svg">
<g clip-path="url(#clip0_20_9877)">
<path d="M29.9703 55.5557C29.9703 55.6041 29.9703 55.7252 29.9703 55.8477C29.9703 57.6833 29.9636 59.5202 29.9744 61.3557C29.9771 61.8617 29.7849 62.1995 29.3388 62.4525C27.9938 63.2155 26.6622 64.0014 25.3319 64.79C24.9812 64.9973 24.6359 65.0484 24.2381 64.9515C22.095 64.424 19.9477 63.914 17.8032 63.3932C16.9755 63.1927 16.7256 62.8657 16.7242 62.0071C16.7242 58.9361 16.7242 55.8638 16.7242 52.7929C16.7242 52.6812 16.7242 52.5695 16.7242 52.4309C15.8468 52.2304 14.9814 52.0366 14.1174 51.8361C12.4835 51.4552 10.8469 51.0811 9.21699 50.6855C7.99692 50.3894 7.25251 49.3788 7.28073 48.2457C7.32507 46.4451 7.29283 44.6432 7.29283 42.817C6.34149 42.6017 5.4009 42.3904 4.46032 42.1778C3.65813 41.9975 2.85461 41.8212 2.05376 41.6341C1.11452 41.4148 0.148407 40.2884 0.100034 39.2979C0.0503176 38.2711 0.039568 37.2403 0.0382243 36.2122C0.0328495 30.7835 -0.0585216 25.3521 0.0664419 19.9262C0.173937 15.2565 1.68291 11.039 4.87149 7.52664C6.37643 5.8687 8.25491 4.75713 10.3202 3.95508C12.8382 2.97808 15.3604 2.0105 17.8959 1.07926C20.1896 0.239524 22.572 -0.114403 25.0121 0.0322818C28.933 0.26913 32.4642 1.6162 35.6421 3.90125C39.1935 6.45544 41.8083 9.77535 43.6142 13.7506C44.6126 15.9495 45.3408 18.2359 45.6969 20.6246C45.8649 21.751 45.9791 22.8962 45.9831 24.0333C46.01 30.3569 45.9966 36.6818 45.9966 43.0054C45.9966 43.9811 45.5733 44.701 44.6824 45.1142C43.629 45.6013 42.5715 46.079 41.5086 46.546C41.3004 46.6375 41.2332 46.7506 41.2372 46.9766C41.252 47.815 41.2372 48.6534 41.2453 49.4932C41.2547 50.4634 40.865 51.1255 39.9298 51.5225C37.0986 52.7229 34.2917 53.9812 31.4632 55.1883C31.0211 55.3767 30.5172 55.4238 29.9703 55.5543V55.5557ZM36.5047 36.5419C36.5047 33.7656 36.4886 30.9894 36.5101 28.2118C36.5249 26.2646 36.2709 24.3563 35.7791 22.479C34.7539 18.5656 32.9869 15.0318 30.3721 11.9299C28.0381 9.16304 25.2043 7.08389 21.8759 5.68972C19.3256 4.62121 16.6745 4.08427 13.9132 4.53105C10.8966 5.01955 8.21191 6.26838 6.04856 8.45788C2.86804 11.6755 1.41954 15.6535 1.27308 20.1173C1.18708 22.7441 1.24889 25.375 1.24889 28.0046C1.24889 31.5398 1.24889 35.0764 1.25561 38.6116C1.2583 39.6371 1.75009 40.2695 2.74845 40.5064C4.38104 40.8953 6.01497 41.2708 7.65428 41.6301C12.681 42.7322 17.7105 43.8196 22.7372 44.9231C26.7509 45.8045 30.7631 46.6981 34.7727 47.597C35.8718 47.8433 36.5249 47.091 36.5168 46.1975C36.4873 42.9798 36.5047 39.7609 36.5047 36.5419ZM8.58143 43.1292C8.58143 43.2786 8.58143 43.4011 8.58143 43.5235C8.58143 45.0872 8.58143 46.651 8.58143 48.2147C8.58143 48.9212 8.8636 49.2953 9.5677 49.4609C11.9017 50.0099 14.237 50.5522 16.5737 51.0946C20.3696 51.9747 24.1656 52.8534 27.9615 53.7295C28.7288 53.9071 29.496 54.0929 30.2713 54.2247C30.7873 54.3136 31.2549 53.9045 31.2589 53.3931C31.271 51.7163 31.267 50.0382 31.2536 48.3614C31.2536 48.2739 31.1286 48.1353 31.0359 48.1084C30.6677 48.0061 30.2888 47.9415 29.9152 47.8581C27.201 47.2552 24.4867 46.6469 21.7711 46.0481C19.0004 45.4371 16.227 44.8383 13.4563 44.2273C11.8412 43.8707 10.2275 43.5006 8.58143 43.1292ZM18.0222 52.6825V62.1067C20.0754 62.6073 22.1259 63.1079 24.2032 63.6152V54.0794C22.1594 53.6178 20.1076 53.1549 18.0222 52.6825Z" fill="#0071CE"/>
<path d="M3.79928 28.6947C3.79928 31.4494 3.79928 34.2027 3.79928 36.9574C3.79928 37.5307 3.93096 37.707 4.48456 37.8268C8.8865 38.7836 13.2911 39.731 17.6917 40.6959C21.2995 41.4872 24.902 42.3 28.5085 43.0993C30.223 43.4788 31.9416 43.8462 33.6562 44.2217C33.808 44.2553 33.9545 44.3105 34.1036 44.3562C34.5054 44.4774 34.6747 44.7425 34.5887 45.1179C34.5282 45.3817 34.1856 45.5661 33.847 45.5015C32.9185 45.3211 31.9886 45.1448 31.0642 44.947C27.2105 44.1207 23.3567 43.2918 19.5057 42.4534C15.742 41.6352 11.981 40.8062 8.22003 39.9772C6.86693 39.6785 5.51921 39.3569 4.16611 39.0635C3.30749 38.8778 2.62489 38.1121 2.62892 37.1499C2.64908 31.7212 2.63699 26.2925 2.63296 20.8639C2.63027 17.6435 3.39886 14.6399 5.1806 11.9377C7.17733 8.90978 9.94668 6.97327 13.5021 6.22639C16.1411 5.67195 18.6847 6.11874 21.1531 7.10919C22.6997 7.73092 24.1334 8.56123 25.4865 9.53016C25.6128 9.62032 25.7351 9.73471 25.8157 9.86524C26.0226 10.2003 25.8802 10.5744 25.4999 10.6673C25.2151 10.7359 24.9423 10.7279 24.6695 10.5287C22.6311 9.03627 20.3952 7.96507 17.896 7.52368C15.9584 7.18186 14.0557 7.41063 12.192 8.02832C8.28319 9.32291 5.95725 12.1395 4.64984 15.917C4.10699 17.4848 3.84497 19.1171 3.83019 20.7751C3.80734 23.4154 3.82481 26.0557 3.82481 28.696C3.81541 28.696 3.806 28.696 3.79794 28.696L3.79928 28.6947Z" fill="#0071CE"/>
<path d="M32.4132 22.9691C32.4132 24.3632 32.4105 25.7561 32.4132 27.1502C32.4159 28.0882 31.8771 28.5444 30.9486 28.3668C28.9357 27.9819 26.9229 27.5863 24.91 27.2C22.1998 26.6806 19.4896 26.1625 16.778 25.6511C14.143 25.1545 11.5067 24.6647 8.869 24.1748C8.52501 24.1116 8.17834 24.0645 7.83167 24.0201C7.18132 23.9353 6.69087 23.3809 6.68953 22.6703C6.68415 19.8376 6.6855 17.0035 6.69759 14.1707C6.70162 13.3202 7.28613 12.8815 8.10981 13.0322C10.2154 13.4171 12.325 13.7845 14.4332 14.1626C16.7847 14.5838 19.1335 15.0104 21.4849 15.4303C23.4602 15.7829 25.4354 16.126 27.4106 16.4759C28.6643 16.698 29.9139 16.951 31.1716 17.1394C31.9926 17.2618 32.4011 18.002 32.4065 18.6506C32.4172 20.0892 32.4105 21.5291 32.4105 22.9677C32.4105 22.9677 32.4118 22.9677 32.4132 22.9677V22.9691ZM31.2428 27.2095C31.2482 27.1206 31.2576 27.0332 31.2576 26.9457C31.259 24.2717 31.2603 21.5978 31.2616 18.9238C31.2616 18.3734 31.22 18.3371 30.6624 18.2388C28.8538 17.9199 27.0465 17.5969 25.2392 17.2726C22.9993 16.8716 20.762 16.4652 18.5221 16.0641C16.0269 15.6174 13.5316 15.176 11.0364 14.7305C9.98561 14.5435 8.93484 14.3537 7.85854 14.1613V22.7874C15.6493 24.2596 23.4387 25.7319 31.2442 27.2081L31.2428 27.2095Z" fill="#0071CE"/>
<path d="M19.0924 32.7843C19.9322 32.9538 20.7371 33.118 21.5419 33.2795C21.9235 33.3562 21.9907 33.5392 21.773 33.8636C20.5583 35.6722 19.3477 37.4822 18.1357 39.2936C18.0309 39.4497 17.5498 39.5789 17.3926 39.4335C17.3093 39.3555 17.3079 39.1307 17.3429 38.9908C17.6694 37.6814 18.0107 36.376 18.3574 35.0357C17.7903 34.924 17.2408 34.8163 16.6925 34.71C16.4493 34.6629 16.2061 34.6172 15.9616 34.5728C15.6203 34.5108 15.5276 34.3305 15.713 34.0452C16.6334 32.6241 17.5579 31.2057 18.485 29.79C18.7269 29.4213 18.9795 29.0606 19.2402 28.7054C19.3571 28.5452 19.4847 28.3528 19.736 28.486C19.9658 28.6085 19.9376 28.8117 19.8919 29.0189C19.6379 30.1736 19.384 31.3282 19.1313 32.4828C19.1125 32.5703 19.1085 32.6605 19.0924 32.7843Z" fill="#0071CE"/>
</g>
<defs>
<clipPath id="clip0_20_9877">
<rect width="46" height="65" fill="white"/>
</clipPath>
</defs>
</svg>
