<svg width="16" height="16" viewBox="0 0 16 16" fill="none" xmlns="http://www.w3.org/2000/svg">
<path fill-rule="evenodd" clip-rule="evenodd" d="M3.14454 3.14491C3.50398 2.78547 3.9915 2.58353 4.49983 2.58353C5.00816 2.58353 5.49567 2.78547 5.85511 3.14491C6.21456 3.50436 6.41649 3.99187 6.41649 4.5002C6.41649 5.00853 6.21456 5.49604 5.85511 5.85549C5.49567 6.21493 5.00816 6.41687 4.49983 6.41687C3.9915 6.41687 3.50398 6.21493 3.14454 5.85549C2.78509 5.49604 2.58316 5.00853 2.58316 4.5002C2.58316 3.99187 2.78509 3.50436 3.14454 3.14491ZM4.49983 3.41687C4.21251 3.41687 3.93696 3.531 3.73379 3.73417C3.53063 3.93733 3.41649 4.21288 3.41649 4.5002C3.41649 4.78752 3.53063 5.06307 3.73379 5.26623C3.93696 5.4694 4.21251 5.58353 4.49983 5.58353C4.78714 5.58353 5.06269 5.4694 5.26586 5.26623C5.46902 5.06307 5.58316 4.78752 5.58316 4.5002C5.58316 4.21288 5.46902 3.93733 5.26586 3.73417C5.06269 3.531 4.78714 3.41687 4.49983 3.41687Z" fill="#061B2D"/>
<path fill-rule="evenodd" clip-rule="evenodd" d="M10.1445 3.14491C10.504 2.78547 10.9915 2.58353 11.4998 2.58353C12.0082 2.58353 12.4957 2.78547 12.8551 3.14491C13.2146 3.50436 13.4165 3.99187 13.4165 4.5002C13.4165 5.00853 13.2146 5.49604 12.8551 5.85549C12.4957 6.21493 12.0082 6.41687 11.4998 6.41687C10.9915 6.41687 10.504 6.21493 10.1445 5.85549C9.78509 5.49604 9.58316 5.00853 9.58316 4.5002C9.58316 3.99187 9.78509 3.50436 10.1445 3.14491ZM11.4998 3.41687C11.2125 3.41687 10.937 3.531 10.7338 3.73417C10.5306 3.93733 10.4165 4.21288 10.4165 4.5002C10.4165 4.78752 10.5306 5.06307 10.7338 5.26623C10.937 5.4694 11.2125 5.58353 11.4998 5.58353C11.7871 5.58353 12.0627 5.4694 12.2659 5.26623C12.469 5.06307 12.5832 4.78752 12.5832 4.5002C12.5832 4.21288 12.469 3.93733 12.2659 3.73417C12.0627 3.531 11.7871 3.41687 11.4998 3.41687ZM7.40817 3.01737C7.45392 3.2429 7.30818 3.46281 7.08265 3.50855C6.66043 3.5942 6.25252 3.7394 5.87114 3.9398C5.66743 4.04684 5.41552 3.96847 5.30848 3.76477C5.20144 3.56106 5.2798 3.30915 5.48351 3.20211C5.93476 2.96499 6.41741 2.79319 6.91699 2.69185C7.14252 2.6461 7.36243 2.79184 7.40817 3.01737ZM3.76439 5.30886C3.9681 5.4159 4.04646 5.66781 3.93942 5.87152C3.73901 6.25289 3.59382 6.66081 3.50817 7.08303C3.46243 7.30855 3.24252 7.4543 3.017 7.40855C2.79147 7.36281 2.64573 7.1429 2.69147 6.91737C2.79281 6.41779 2.96461 5.93513 3.20173 5.48388C3.30877 5.28018 3.56068 5.20181 3.76439 5.30886Z" fill="#061B2D"/>
<path fill-rule="evenodd" clip-rule="evenodd" d="M8.59147 3.01756C8.63721 2.79204 8.85712 2.6463 9.08265 2.69204C9.58223 2.79338 10.0649 2.96518 10.5161 3.2023C10.7198 3.30934 10.7982 3.56125 10.6912 3.76496C10.5841 3.96867 10.3322 4.04703 10.1285 3.93999C9.74713 3.73959 9.33921 3.59439 8.91699 3.50875C8.69146 3.463 8.54572 3.24309 8.59147 3.01756ZM12.2349 5.30909C12.4386 5.20201 12.6905 5.28032 12.7976 5.48401C13.0348 5.93524 13.2067 6.4179 13.3082 6.91751C13.3539 7.14303 13.2082 7.36296 12.9827 7.40874C12.7572 7.45451 12.5373 7.3088 12.4915 7.08328C12.4058 6.66105 12.2605 6.25314 12.06 5.87178C11.9529 5.6681 12.0312 5.41617 12.2349 5.30909ZM10.1445 10.1451C10.504 9.78566 10.9915 9.58373 11.4998 9.58373C12.0081 9.58373 12.4957 9.78566 12.8551 10.1451C13.2146 10.5046 13.4165 10.9921 13.4165 11.5004C13.4165 12.0087 13.2146 12.4962 12.8551 12.8557C12.4957 13.2151 12.0081 13.4171 11.4998 13.4171C10.9915 13.4171 10.504 13.2151 10.1445 12.8557C9.78508 12.4962 9.58315 12.0087 9.58315 11.5004C9.58315 10.9921 9.78508 10.5046 10.1445 10.1451ZM11.4998 10.4171C11.2125 10.4171 10.9369 10.5312 10.7338 10.7344C10.5306 10.9375 10.4165 11.2131 10.4165 11.5004C10.4165 11.7877 10.5306 12.0633 10.7338 12.2664C10.9369 12.4696 11.2125 12.5837 11.4998 12.5837C11.7871 12.5837 12.0627 12.4696 12.2658 12.2664C12.469 12.0633 12.5832 11.7877 12.5832 11.5004C12.5832 11.2131 12.469 10.9375 12.2658 10.7344C12.0627 10.5312 11.7871 10.4171 11.4998 10.4171Z" fill="#061B2D"/>
<path fill-rule="evenodd" clip-rule="evenodd" d="M12.9827 8.59186C13.2082 8.63764 13.3539 8.85757 13.3082 9.08309C13.2067 9.58269 13.0349 10.0653 12.7976 10.5166C12.6906 10.7203 12.4386 10.7986 12.2349 10.6915C12.0313 10.5844 11.9529 10.3325 12.06 10.1288C12.2605 9.74745 12.4058 9.33954 12.4915 8.91731C12.5373 8.69179 12.7572 8.54608 12.9827 8.59186ZM3.14454 10.1449C3.50398 9.78547 3.9915 9.58353 4.49983 9.58353C5.00816 9.58353 5.49567 9.78547 5.85512 10.1449C6.21456 10.5044 6.41649 10.9919 6.41649 11.5002C6.41649 12.0085 6.21456 12.496 5.85512 12.8555C5.49567 13.2149 5.00816 13.4169 4.49983 13.4169C3.9915 13.4169 3.50398 13.2149 3.14454 12.8555C2.78509 12.496 2.58316 12.0085 2.58316 11.5002C2.58316 10.9919 2.78509 10.5044 3.14454 10.1449ZM4.49983 10.4169C4.21251 10.4169 3.93696 10.531 3.73379 10.7342C3.53063 10.9373 3.41649 11.2129 3.41649 11.5002C3.41649 11.7875 3.53063 12.0631 3.73379 12.2662C3.93696 12.4694 4.21251 12.5835 4.49983 12.5835C4.78715 12.5835 5.0627 12.4694 5.26586 12.2662C5.46902 12.0631 5.58316 11.7875 5.58316 11.5002C5.58316 11.2129 5.46902 10.9373 5.26586 10.7342C5.0627 10.531 4.78715 10.4169 4.49983 10.4169ZM10.6911 12.2353C10.7982 12.439 10.7199 12.6909 10.5162 12.798C10.065 13.0352 9.58232 13.2071 9.08272 13.3085C8.8572 13.3543 8.63727 13.2086 8.59149 12.9831C8.54571 12.7576 8.69142 12.5376 8.91693 12.4919C9.33917 12.4061 9.74708 12.2609 10.1284 12.0604C10.3321 11.9533 10.5841 12.0316 10.6911 12.2353Z" fill="#061B2D"/>
<path fill-rule="evenodd" clip-rule="evenodd" d="M7.99973 6.08334C8.22985 6.08334 8.4164 6.26988 8.4164 6.5V7.58334H9.49973C9.72985 7.58334 9.9164 7.76988 9.9164 8C9.9164 8.23012 9.72985 8.41667 9.49973 8.41667H8.4164V9.5C8.4164 9.73012 8.22985 9.91667 7.99973 9.91667C7.76961 9.91667 7.58307 9.73012 7.58307 9.5V8.41667H6.49973C6.26961 8.41667 6.08307 8.23012 6.08307 8C6.08307 7.76988 6.26961 7.58334 6.49973 7.58334H7.58307V6.5C7.58307 6.26988 7.76961 6.08334 7.99973 6.08334ZM3.0169 8.59165C3.24243 8.54591 3.46234 8.69165 3.50808 8.91717C3.59373 9.3394 3.73893 9.74731 3.93933 10.1287C4.04637 10.3324 3.968 10.5843 3.7643 10.6913C3.56059 10.7984 3.30868 10.72 3.20164 10.5163C2.96452 10.0651 2.79272 9.58242 2.69138 9.08283C2.64563 8.85731 2.79138 8.6374 3.0169 8.59165ZM5.30842 12.2351C5.4155 12.0314 5.66743 11.9531 5.87112 12.0602C6.25248 12.2607 6.66039 12.406 7.08262 12.4917C7.30814 12.5374 7.45385 12.7574 7.40807 12.9829C7.36229 13.2084 7.14236 13.3541 6.91684 13.3083C6.41724 13.2069 5.93459 13.035 5.48335 12.7978C5.27966 12.6907 5.20134 12.4388 5.30842 12.2351Z" fill="#061B2D"/>
</svg>
