<svg width="16" height="16" viewBox="0 0 16 16" fill="none" xmlns="http://www.w3.org/2000/svg">
<path d="M5.31479 4.14824L4.11234 3.58783L4.96351 2H10.6853L11.5432 3.58783L10.3408 4.14201L9.85437 3.24536H5.80117L5.31479 4.14824ZM12.2998 5.73607H9.23963L8.70596 3.86803H6.94958L6.41591 5.73607H3.35574L2.49106 7.3239L3.70026 7.87808L4.1934 6.98143H11.4621L11.9485 7.88431L13.1577 7.33013L12.2998 5.73607ZM11.7256 14.4536H10.3272L10.1651 13.8932L7.82777 10.6552L5.48367 13.8932L5.3283 14.4536H3.92994L5.88223 7.6041H7.28059L7.0374 8.44472L7.82777 9.53441L8.61139 8.44472L8.37495 7.6041H9.77331L11.7256 14.4536ZM7.42245 10.0948L6.81447 9.2542L6.01734 12.0438L7.42245 10.0948ZM9.6382 12.0376L8.84107 9.24797L8.23309 10.0948L9.6382 12.0376Z" fill="#49A4EF"/>
</svg>
