<svg width="33" height="28" viewBox="0 0 33 28" fill="none" xmlns="http://www.w3.org/2000/svg">
<path d="M24.2072 20.4898C24.2047 20.5409 24.2035 20.5903 24.2035 20.6378C24.2059 20.5903 24.2071 20.5409 24.2072 20.4898Z" fill="#212121"/>
<path d="M31.9991 27.9134V20.6378C32.0297 19.4252 31.3021 17 28.1471 17C24.9922 17 24.2035 19.4252 24.2035 20.6378C24.2646 19.4252 23.5982 17 20.4432 17C17.2883 17 16.4995 19.4252 16.4995 20.6378C16.4995 19.4252 15.7292 17 12.6476 17C9.56602 17 8.79563 19.4252 8.79563 20.6378C8.76506 19.4252 7.93352 17 4.85196 17C1.77039 17 1 19.4252 1 20.6378L1 28" stroke="white" stroke-width="1.5"/>
<path d="M8.79281 7.51015C8.79533 7.45912 8.79654 7.40973 8.79654 7.36221C8.79415 7.40973 8.79287 7.45912 8.79281 7.51015Z" fill="#212121"/>
<path d="M1.00091 0.0866142V7.36221C0.97034 8.5748 1.69793 11 4.85287 11C8.00781 11 8.79654 8.5748 8.79654 7.36221C8.7354 8.5748 9.40185 11 12.5568 11C15.7117 11 16.5005 8.5748 16.5005 7.36221C16.5005 8.5748 17.2708 11 20.3524 11C23.434 11 24.2044 8.5748 24.2044 7.36221C24.2349 8.5748 25.0665 11 28.148 11C31.2296 11 32 8.5748 32 7.36221V0" stroke="white" stroke-width="1.5"/>
</svg>
