<?xml version="1.0" encoding="UTF-8"?><svg id="b" xmlns="http://www.w3.org/2000/svg" viewBox="0 0 906.79 839.84"><defs><style>.d{fill:#474747;}</style></defs><g id="c"><path class="d" d="M242.69,436.14c-3.06-1.79-5.64-3.25-8.18-4.79-5.31-3.21-7.77-7.93-6.92-13.18.82-5.06,4.25-7.71,10.93-9.2,29.59-6.58,59.2-13.07,88.69-20.05,10.83-2.56,21.1-6.81,29.44-14.78,4.32-4.13,9.62-3.88,14.95-1.98,27.06,9.65,52.91,22,78.44,35.07,5.15,2.64,10.25,5.42,15.56,7.71,6,2.59,8.55,7.34,8.59,13.33.16,26.64.12,53.28.02,79.92-.02,5.13-2.4,8.96-7.07,11.7-33.95,19.85-67.83,39.83-101.64,59.93-1.56.93-3.02,3.45-3.05,5.25-.17,8.63-3.05,14.67-11.29,19.14-30.92,16.76-61.52,34.11-92.05,51.56-5.68,3.25-10.34,2.88-15.74-.08-18.62-10.2-37.42-20.07-56.02-30.31-3.17-1.75-5.35-1.75-8.46.14-18.43,11.2-37.6,21.27-53.42,36.29-16.72,15.88-29.39,34.21-33.95,57.24-5.03,25.43-1.18,49.42,12.6,71.56,3.94,6.34,8.18,12.5,12.32,18.71,2.97,4.46,2.82,10.26-.42,12.7-2.98,2.25-8.4.82-11.72-3.24-19.52-23.86-30.98-50.7-30.62-82.04.31-27.18,10-50.67,26.89-71.63,17.59-21.81,40.88-36.21,64.56-50.09,8.72-5.11,17.69-9.8,26.67-14.45,4.32-2.24,6.98-5.52,7.93-10.18,2.55-12.52-.1-23.92-8.66-33.36-7.26-8.01-17.38-8.37-26.37-5.13-11.76,4.24-22.8,10.52-33.98,16.26-26.69,13.7-50.5,31.24-70.68,53.58-23.08,25.56-37.37,55.23-42.45,89.35-5.7,38.28,2.97,73.66,21.13,107.2,1.66,3.07,3.3,6.15,4.8,9.29,2.27,4.75,1.5,9.19-1.77,11.15-3.97,2.38-9.58.72-12.34-3.86-16.14-26.77-26.6-55.37-28.88-86.82-2.75-37.97,4.98-73.65,24.3-106.28,20.33-34.34,49.31-60.21,83.82-79.94,9.36-5.35,18.91-10.39,28.5-15.31,2.79-1.43,3.62-3.12,3.58-6.17-.19-12.65.26-25.32-.27-37.95-.31-7.21,2.63-11.35,8.64-14.68,22.5-12.44,44.82-25.21,67.28-37.72,8.53-4.75,17.27-9.13,26.32-13.9ZM428.33,457.54c-6.01,4-11.35,7.31-16.38,11.06-1.39,1.04-2.4,3.32-2.56,5.12-.58,6.43-.6,12.91-1.07,19.35-.36,4.98-3.95,8.48-8.1,8.35-4.31-.14-6.76-3.2-6.82-8.67-.06-4.53-.01-9.07-.01-13.75-.64.27-1.41.51-2.1.89-43.4,24.31-86.81,48.6-130.13,73.06-1.39.78-2.55,3.25-2.57,4.95-.21,12.48-.11,24.96-.11,37.44,0,13.88,0,27.76,0,42.74,6.03-3.3,10.69-5.76,15.25-8.37,22.45-12.85,44.86-25.76,67.31-38.59,3.36-1.92,4.97-4.3,4.56-8.44-.7-7.17,2.01-12.3,8.75-16.18,33.46-19.3,66.63-39.11,100-58.57,3-1.75,4.09-3.55,4.01-6.95-.31-13.46-.35-26.92-.45-40.39-.05-6.4,0-12.8,0-19.64-1.95,1.03-3.59,2.17-5.4,2.8-6.07,2.09-8.85,5.9-8.5,12.62.3,5.77-.39,11.63-1.07,17.39-.52,4.46-4.33,7.48-8.14,6.96-4.51-.62-5.85-3.55-5.82-7.8.03-4.8-.38-9.61-.65-15.37ZM258.68,445.28c-31.45,17.08-62.39,33.88-93.94,51.02,1.98,1.14,3.09,1.84,4.25,2.43,25.63,12.78,51.31,25.43,76.83,38.43,3.71,1.89,6.28,1.81,9.81-.19,31.32-17.71,62.76-35.23,94.16-52.81,11.4-6.38,22.8-12.79,34.71-19.47-1.46-.81-2.26-1.32-3.1-1.71-14.57-6.77-29.13-13.55-43.73-20.23-1.05-.48-2.53-.43-3.71-.17-12.91,2.92-25.97,5.33-38.63,9.09-11.17,3.32-21.2,1.82-31.09-3.5-1.9-1.02-3.82-2-5.53-2.89ZM200.89,614.68c14.4,7.79,28.12,15.21,41.79,22.6.31-.39.49-.51.49-.63.12-26.59.26-53.18.23-79.78,0-1.2-1.33-2.93-2.5-3.53-26.66-13.73-53.38-27.33-80.1-40.95-1.22-.62-2.53-1.08-4.09-1.74v26.39c33.72-8.06,45.12,4.28,53.41,18.73,5.61,9.77,7.26,20.66,6.21,31.76-1.05,11.07-5.06,20.85-15.44,27.14ZM246.27,422.04c10.38,5.49,19.24,10.73,28.59,14.85,3.74,1.65,8.92,2.09,12.83.95,24.61-7.2,49.04-14.99,73.52-22.62,3.49-1.09,6.91-2.39,10.6-3.67-6.38-5.1-12.01-9.71-17.78-14.12-.92-.7-2.63-.96-3.79-.67-27.45,6.74-54.87,13.61-82.31,20.39-6.69,1.65-13.45,3.05-21.65,4.89ZM451.86,424.93c-3.98-.74-6.92-6.09-12.66-3.05-11.59,6.13-23.33,11.98-35.08,17.8-3.85,1.91-7.81,3.83-11.94,4.87-4.2,1.06-7.94-.66-9.8-4.84-1.95-4.39.81-6.8,4.28-8.67,2.62-1.42,5.23-2.87,7.92-4.16,10.25-4.96,20.52-9.86,31.36-15.05-4.4-2.1-8-4.05-11.8-5.49-1.33-.51-3.41-.26-4.67.46-7.62,4.34-14.88,9.37-22.7,13.3-10.17,5.12-20.75,9.42-31.56,14.25,12.44,6.4,24.76,12.18,36.46,19.01,5.31,3.09,8.71,3.22,13.97-.22,15.1-9.86,30.77-18.86,46.22-28.2ZM389.25,404.34c-1.55-8.49-6.18-12.66-17.66-16.03-1.89-.56-4.09-.08-6.14-.08.03.45.06.9.09,1.35,7.77,4.84,15.54,9.68,23.71,14.76Z"/><path class="d" d="M570.5,71.44v173.25c-5.8,2.61-10.7,4.81-16.28,7.32,0-2.02,0-3.9,0-5.79,0-60.43.02-120.86-.01-181.29,0-8.2,2.71-13.74,11.05-17.24,36.5-15.32,72.71-31.33,109.15-46.78,2.94-1.25,7.37-1.21,10.31.08,51.04,22.26,101.95,44.81,152.89,67.31,19.85,8.77,39.61,17.75,59.58,26.25,7.88,3.36,9.47,9.59,9.49,16.9.06,26.3.02,52.61.01,78.91,0,90.73-.07,181.46.1,272.19.01,7.53-2.51,11.84-9.26,15.68-32.45,18.45-64.69,37.29-96.63,56.62-8.21,4.97-14.68,5.4-23.31.93-61.73-31.91-123.74-63.28-185.62-94.89-10.04-5.13-19.75-10.93-29.93-15.75-6.03-2.85-8.16-7.03-8.1-13.3.28-28.63,1.23-57.28.23-85.86-.43-12.3,2.68-20.14,14.09-24.45.44-.17.85-.42,2.19-1.08,0,2.51,0,4.54,0,6.57-.11,32.63-.18,65.26-.4,97.88-.02,3.33.78,5.38,3.91,7,32.69,16.92,65.22,34.16,97.97,50.97,33.79,17.34,67.78,34.3,101.69,51.42,1.87.94,3.79,1.78,6.36,2.98,0-2.6,0-4.53,0-6.46.06-93.89.12-187.78.16-281.67,0-19.47-.2-38.95-.07-58.42.02-3.71-1.18-5.71-4.52-7.22-52.87-23.81-105.7-47.71-158.55-71.58-13.44-6.07-26.88-12.13-40.33-18.15-1.64-.73-3.37-1.27-6.17-2.31ZM889.77,119.06c-1.03.18-1.56.15-1.97.35-29.12,14.71-58.21,29.48-87.37,44.11-2.88,1.44-3.39,3.33-3.39,6.27.04,113.85-.01,227.69-.05,341.54,0,1.59,0,3.17,0,5.29,1.18-.53,1.79-.73,2.32-1.04,29.17-17.17,58.3-34.41,87.54-51.45,2.97-1.73,2.97-3.92,2.97-6.63-.04-44.61-.05-89.21-.05-133.82,0-68.05,0-136.11,0-204.61ZM877.42,105.6c-10.33-4.7-19.92-9.17-29.6-13.44-54.4-24-108.85-47.89-163.19-72.03-3.92-1.74-6.96-1.66-10.72-.01-21.85,9.55-43.79,18.89-65.7,28.31-7.67,3.3-15.33,6.62-23.29,10.06,17.51,7.84,34.46,15.36,51.36,23.01,49.66,22.48,99.3,45.02,148.99,67.44,1.42.64,3.66.76,5.01.09,28.81-14.25,57.54-28.64,87.14-43.43Z"/><path class="d" d="M751,326.17c0,24.46,0,48.93-.01,73.39,0,1.82-.06,3.66-.32,5.46-1.12,7.8-6.05,11.11-13.45,8.19-8.15-3.22-15.98-7.23-23.91-10.99-35.19-16.69-70.33-33.49-105.58-50.04-6.8-3.19-8.73-8.46-8.73-15.26,0-30.29-.04-60.57-.06-90.86-.01-19.8,0-39.61,0-59.41,0-1.33-.04-2.67.05-3.99.66-9.18,6.94-13.07,15.21-9.16,14.98,7.1,29.77,14.58,44.8,21.57,25.98,12.09,51.94,24.26,78.2,35.72,12.9,5.63,13.22,6.71,13.57,20.99.61,24.78.17,49.59.17,74.39h.05ZM735.02,393.78c0-47.32-.06-93.74.11-140.16.01-3.95-1.23-5.85-4.69-7.46-31.24-14.56-62.41-29.28-93.62-43.92-7.01-3.29-14.1-6.42-21.32-9.7-.2.95-.39,1.41-.39,1.87-.01,46.61-.04,93.21.14,139.81,0,1.52,1.79,3.73,3.3,4.45,19.87,9.54,39.86,18.85,59.8,28.25,18.56,8.76,37.09,17.57,56.67,26.85Z"/><path class="d" d="M402.82,316.17c-1.91-4.03-3.96-7.13-4.83-10.53-.94-3.65-2.44-8.08,2.36-10.57,4.27-2.21,9.06-.53,11.77,4.16,5.46,9.48,10.88,18.99,16.11,28.6,3.49,6.42,2.05,10.1-4.47,12.97-11.36,5-22.72,10.03-34.05,15.11-4.62,2.07-9.3,1.1-11.46-2.58-2.07-3.55-1.09-8.17,2.97-10.89,5.36-3.6,11.03-6.74,16.99-10.34-10.03-4.75-19.99-9.48-29.96-14.18-11.39-5.37-22.81-10.7-34.2-16.08-5.48-2.59-6.9-6.1-4.63-11.19,2.09-4.67,6.26-6.16,11.66-3.61,19.93,9.43,39.79,19.01,59.68,28.53.29.14.63.18,2.05.58Z"/><path class="d" d="M517.23,294.19c13.73-8.27,27.46-16.54,41.19-24.81,2.27-1.37,4.55-2.73,6.82-4.1,5.16-3.09,9.1-2.88,11.49.62,2.76,4.04,1.34,9.89-3.41,12.94-7.96,5.1-16.05,10-24.08,15-9.53,5.93-19.04,11.87-29.56,18.42,3.82,2.32,6.74,4.04,9.59,5.85,1.94,1.22,4.01,2.35,5.64,3.91,3,2.88,3.68,7.01,1.08,9.81-1.62,1.75-6.17,2.65-8.37,1.65-10.39-4.69-20.49-10.05-30.55-15.44-3.89-2.08-4.91-5.94-3.34-9.91,6.1-15.38,12.35-30.7,18.76-45.95.85-2.03,2.74-3.8,4.52-5.21,4.21-3.35,9.89-1.06,10.21,4.31.18,2.99-.64,6.22-1.69,9.09-2.87,7.81-6.11,15.48-9.2,23.21.29.2.59.4.88.6Z"/><path class="d" d="M630.18,284.92c0-10.15-.01-20.31,0-30.46.01-7.62,4.21-10.95,11.57-9.23,8.43,1.97,9.19,1.44,10.42-7.07.21-1.47.55-2.92.87-4.37,1.28-5.93,5.63-8.27,11.16-5.79,7.86,3.51,15.56,7.4,23.5,10.73,7.69,3.23,10.49,9.92,9.7,16.86-1.35,11.76,3.74,18.65,13.53,23.29,6.79,3.21,8.93,8.88,8.93,15.85,0,20.47.11,40.95-.03,61.42-.05,6.84-4.87,10.1-11.07,7.21-23.74-11.09-47.39-22.35-70.94-33.84-5.07-2.47-7.54-7.37-7.58-13.12-.07-10.49-.02-20.97-.02-31.46h-.05Z"/></g></svg>