<svg width="105" height="133" viewBox="0 0 105 133" fill="none" xmlns="http://www.w3.org/2000/svg">
<path d="M53.9353 114.666C45.8778 112.325 37.8854 110.003 29.8307 107.664C29.8307 108.259 29.7928 108.818 29.8375 109.372C30 111.397 28.9149 112.7 27.246 113.485C24.2793 114.88 21.272 114.75 18.3595 113.264C16.9751 112.557 16.333 111.315 16.3059 109.785C16.2734 107.979 16.2896 106.174 16.3032 104.368C16.3059 104.017 16.2504 103.807 15.8616 103.681C12.6185 102.627 9.38636 101.539 6.14469 100.48C5.27094 100.194 4.35655 100.025 3.495 99.708C1.30589 98.9033 0.021682 96.9987 0.021682 94.662C0.021682 67.4566 0.0352285 40.2539 7.67361e-06 13.0513C-0.00405627 10.3067 1.60662 8.59447 3.53835 7.86567C10.1517 5.37176 16.7719 2.89141 23.388 0.401565C25.1585 -0.264922 26.9345 0.0290367 28.709 0.348733C33.6101 1.23061 38.5086 2.1328 43.411 3.01468C48.8811 3.99951 54.3525 4.97756 59.8253 5.95155C65.504 6.96347 71.1853 7.96591 76.864 8.97648C81.3398 9.77301 85.8142 10.5858 90.2913 11.3756C93.5546 11.9513 96.8193 12.5229 100.089 13.0607C102.644 13.4807 104.378 15.4883 104.38 18.1325C104.384 25.6495 104.38 33.1678 104.38 40.6847C104.38 61.5435 104.38 82.4038 104.384 103.263C104.384 105.11 103.739 106.588 102.232 107.755C96.8193 111.949 91.4116 116.149 86.0783 120.445C84.4216 121.779 82.6931 122.564 80.5852 122.325C79.6871 122.224 78.8106 121.928 77.8041 121.693C78.0642 123.478 77.6308 124.894 75.6083 125.364C75.6083 126.554 75.6191 127.723 75.6042 128.891C75.5961 129.475 75.588 130.064 75.4999 130.64C75.3116 131.873 74.2888 132.565 73.0534 132.347C71.4062 132.057 70.7302 131.251 70.7248 129.59C70.7207 128.371 70.6936 127.153 70.699 125.934C70.7004 125.605 70.6286 125.431 70.2899 125.282C69.0409 124.735 68.3528 123.81 68.4246 122.374C68.4733 121.384 68.4462 120.388 68.4192 119.395C68.4137 119.215 68.285 118.92 68.1509 118.879C66.6161 118.403 65.0678 117.966 63.411 117.485C63.6616 119.437 63.5722 121.148 61.0607 121.407C61.0607 122.774 61.0702 124.1 61.058 125.426C61.0472 126.508 61.0174 127.591 60.9781 128.672C60.9564 129.269 60.634 129.697 60.0921 129.919C59.0111 130.361 57.9735 130.19 57.032 129.545C56.4807 129.168 56.2531 128.594 56.2571 127.91C56.2707 125.743 56.2531 123.576 56.268 121.409C56.2707 121.027 56.1881 120.819 55.7966 120.656C54.5245 120.127 53.8702 119.176 53.9285 117.752C53.9691 116.739 53.9366 115.723 53.9366 114.665L53.9353 114.666ZM10.023 43.3615C10.2222 43.4116 10.4362 43.4658 10.6489 43.52C11.5402 43.7435 12.4451 43.925 13.3202 44.2014C13.9949 44.4154 14.2997 45.151 14.0816 45.7971C13.9204 46.2726 13.3826 46.5083 12.7405 46.3918C11.8437 46.2279 10.9456 46.0681 9.98375 45.896C9.98375 46.194 9.98375 46.4176 9.98375 46.6397C9.9824 60.6143 9.98375 74.5888 9.96208 88.5647C9.96208 89.1905 10.1937 89.41 10.7505 89.5685C14.7873 90.7213 18.8066 91.9391 22.8488 93.0689C31.2341 95.4124 39.6302 97.714 48.0209 100.033C58.0385 102.801 68.0561 105.57 78.0737 108.337C79.5367 108.741 80.9998 109.142 82.4899 109.55V36.4948C58.3121 31.6763 34.1656 26.8632 9.99053 22.0448V26.9134C11.0675 27.1694 12.1227 27.3794 13.1536 27.6774C13.877 27.886 14.2617 28.5796 14.1032 29.181C13.9434 29.7906 13.4015 30.0548 12.5752 29.9112C11.7204 29.7635 10.8683 29.6078 9.99053 29.4506V32.3563C10.2384 32.42 10.4728 32.485 10.7098 32.5392C11.4982 32.718 12.2961 32.8643 13.0764 33.077C13.8296 33.2829 14.2441 33.9399 14.1046 34.5942C13.9773 35.1889 13.43 35.4463 12.5725 35.2851C11.7231 35.1252 10.8778 34.9396 10.0108 34.7608V38.0296C11.0783 38.2816 12.116 38.4834 13.1252 38.7787C13.8594 38.9941 14.171 39.6403 13.984 40.3068C13.8215 40.8825 13.3663 41.0911 12.5644 40.938C11.7326 40.7782 10.9022 40.6048 10.0203 40.4273V43.3601L10.023 43.3615ZM101.951 27.0597C101.808 27.0962 101.739 27.1003 101.684 27.1287C96.1705 30.0277 90.6557 32.9239 85.1545 35.8459C84.9729 35.9421 84.8348 36.3011 84.8348 36.5368C84.8199 60.216 84.8212 83.8952 84.8239 107.573C84.8239 107.759 84.8524 107.943 84.8727 108.195C85.1612 108 85.3685 107.867 85.5676 107.723C90.9253 103.872 96.2856 100.025 101.628 96.1534C101.825 96.0112 101.949 95.64 101.949 95.3745C101.96 76.0979 101.955 56.8199 101.952 37.5433C101.952 34.07 101.952 30.598 101.952 27.0583L101.951 27.0597ZM2.59822 20.5397V87.0976C4.33217 87.6124 6.06341 88.1271 7.83935 88.6555V45.3068C7.0225 45.1049 6.207 44.9383 5.41589 44.6958C4.72502 44.4845 4.35113 43.8356 4.48931 43.2423C4.61529 42.7031 5.11515 42.443 5.90762 42.5365C6.54431 42.6124 7.17693 42.7167 7.82174 42.8101V40.0169C7.40722 39.9437 7.03198 39.8827 6.6581 39.811C6.28286 39.7392 5.90491 39.6768 5.5378 39.5739C4.75346 39.3517 4.30372 38.6663 4.4866 38.0106C4.65186 37.4186 5.21404 37.1884 6.04444 37.3469C6.62965 37.4593 7.22028 37.5446 7.82851 37.6462V34.3802C7.0523 34.1919 6.29505 34.0605 5.57573 33.8193C4.74398 33.5416 4.33488 32.8779 4.49744 32.2547C4.64645 31.6871 5.20727 31.4623 6.13385 31.6059C6.2666 31.6262 6.39394 31.6763 6.5267 31.7007C6.95612 31.7806 7.38554 31.8538 7.83529 31.9337V29.0009C7.59551 28.9494 7.37064 28.9223 7.16067 28.8532C6.40207 28.604 5.60825 28.4157 4.91467 28.0418C4.65457 27.9009 4.45815 27.2656 4.55162 26.9486C4.64509 26.6302 5.10432 26.3552 5.4633 26.2035C5.72204 26.0938 6.08373 26.1967 6.39394 26.2428C6.87213 26.3119 7.3449 26.4135 7.83935 26.5043V21.6194C6.08915 21.2577 4.35926 20.9001 2.59958 20.537L2.59822 20.5397ZM83.0344 33.3235C83.9935 33.3019 84.6763 32.611 84.6925 31.6655C84.7142 30.4246 84.7088 29.1824 84.6993 27.9402C84.679 25.2607 83.0426 23.2707 80.4064 22.7681C75.8196 21.8944 71.2287 21.0477 66.6405 20.1875C61.6419 19.2488 56.6432 18.3114 51.6459 17.3672C45.718 16.2469 39.7914 15.1198 33.8635 13.9982C25.4918 12.4146 17.1241 10.8161 8.7429 9.28127C7.87186 9.12143 6.92225 9.29482 6.02277 9.41403C5.53509 9.47905 5.13683 9.80959 5.10025 10.4056C10.5094 11.4216 15.886 12.439 21.2639 13.4373C25.2574 14.1783 29.2563 14.8841 33.2498 15.6251C38.0967 16.5246 42.9396 17.4498 47.7865 18.3561C51.8925 19.1241 56.0011 19.8719 60.1057 20.6468C64.8253 21.5381 69.5435 22.4444 74.259 23.3574C76.2179 23.7367 78.1875 24.0767 80.1192 24.5685C81.9914 25.0453 83.0683 26.2117 83.0385 28.4617C83.0168 30.0616 83.0344 31.6627 83.0344 33.3208V33.3235ZM101.33 17.2899C100.844 15.8987 100.347 15.6901 99.1182 16.2902C97.5427 17.0597 95.9849 17.8643 94.3986 18.6107C91.2179 20.1063 88.0236 21.5706 84.8185 23.0553C85.1179 23.501 85.4254 23.9589 85.7762 24.4831C90.9524 22.0895 96.1217 19.6999 101.33 17.2913V17.2899Z" fill="#FFBF3C"/>
<path d="M72.7676 61.8659C72.7676 67.3279 72.7866 72.7912 72.7487 78.2531C72.7419 79.1363 72.5902 80.0534 72.3138 80.892C71.7056 82.7289 69.7359 83.7489 67.853 83.2775C61.1908 81.6099 54.5327 79.9261 47.8719 78.2531C40.6002 76.4257 33.3366 74.5576 26.0486 72.8007C23.0426 72.0759 21.5999 70.0047 20.7275 67.3089C20.6408 67.0407 20.672 66.7291 20.672 66.4365C20.6693 55.9854 20.649 45.5343 20.7045 35.0846C20.7099 34.0943 21.0689 33.0472 21.4956 32.1342C22.1065 30.8269 23.705 30.3094 25.3997 30.663C33.7497 32.4078 42.0971 34.1675 50.4512 35.8933C56.2992 37.1016 62.154 38.2761 68.0101 39.4452C70.6517 39.9721 72.8489 42.5527 72.7988 45.4111C72.7026 50.8947 72.7703 56.381 72.7703 61.8659H72.7676ZM70.3415 61.6573C70.3415 56.1954 70.3401 50.7335 70.3415 45.2715C70.3415 43.6487 69.442 42.4092 67.8435 42.0244C65.9727 41.5733 64.083 41.1981 62.1973 40.808C55.607 39.4465 49.0139 38.1027 42.4249 36.7345C36.6717 35.5397 30.9239 34.3178 25.1721 33.1122C24.1114 32.8901 23.1727 33.4685 22.9112 34.5305C22.8164 34.918 22.7812 35.3298 22.7812 35.7307C22.7744 45.9773 22.7757 56.2238 22.7757 66.4718C22.7757 68.268 24.1019 69.9559 25.8616 70.3962C33.2404 72.2398 40.6205 74.0808 47.9993 75.9258C54.5327 77.5595 61.0662 79.2 67.5983 80.8364C68.7538 81.1263 69.6235 80.728 70.034 79.6159C70.2304 79.0808 70.3239 78.4793 70.3266 77.9077C70.3482 72.4904 70.3387 67.0746 70.3401 61.6573H70.3415Z" fill="#FFBF3C"/>
<path d="M66.6189 65.9988C66.6189 69.2269 66.6189 72.4537 66.6189 75.6818C66.6189 76.878 65.8914 77.4591 64.7224 77.1706C58.4883 75.6344 52.2596 74.082 46.0242 72.554C40.0285 71.0842 34.0261 69.6401 28.0304 68.1744C26.8031 67.875 26.1691 67.0378 26.1691 65.7889C26.1678 59.8975 26.1678 54.0061 26.1691 48.1148C26.1691 46.8712 26.7584 46.3876 27.9721 46.649C34.1805 47.9834 40.3848 49.3353 46.5958 50.6574C52.6565 51.9471 58.724 53.2015 64.7847 54.4884C66.3412 54.8189 66.646 55.247 66.6446 56.8577C66.6419 59.9043 66.6446 62.9522 66.6446 65.9988H66.6216H66.6189ZM28.3663 65.8634C40.3265 68.807 52.303 71.7561 64.3309 74.716V56.8197C52.3653 54.2662 40.3915 51.71 28.3663 49.143V65.862V65.8634Z" fill="#FFBF3C"/>
<path d="M40.103 43.2126C40.1315 42.2494 40.4498 41.4515 41.3005 40.9909C42.1756 40.5168 43.0345 40.6875 43.8297 41.2388C44.9594 42.0218 45.5744 43.6555 45.2439 44.9858C44.8687 46.4976 43.1984 47.1722 41.8221 46.3459C40.6381 45.6347 40.1464 44.532 40.103 43.2126Z" fill="#FFBF3C"/>
<path d="M33.0006 38.7773C34.4081 38.7746 35.8183 40.0575 36.0445 41.4921C36.1122 41.9228 36.1122 42.3807 36.0513 42.8128C35.8535 44.2176 34.5002 45.029 33.151 44.5861C31.3452 43.9927 30.3509 41.6126 31.2044 39.941C31.604 39.158 32.2772 38.8383 33.0006 38.7773Z" fill="#FFBF3C"/>
<path d="M54.4013 45.7767C54.4148 47.1245 53.8824 48.0294 52.9301 48.3857C52.009 48.7312 50.9198 48.4006 50.1531 47.5038C49.4866 46.7222 49.11 45.8105 49.2644 44.7756C49.5814 42.6556 51.4915 41.9335 53.1455 43.2963C53.9502 43.9587 54.3213 44.8596 54.3999 45.7767H54.4013Z" fill="#FFBF3C"/>
<path d="M56.8965 58.1814C58.2701 58.4875 59.5963 58.7842 60.9117 59.0768V71.2998C59.5557 70.9923 58.2498 70.697 56.8965 70.3908V58.1814Z" fill="#FFBF3C"/>
<path d="M54.8036 69.9993C53.4449 69.6945 52.143 69.4032 50.8372 69.1106V59.0361C52.1823 59.3491 53.4801 59.6511 54.8036 59.9586V69.9993Z" fill="#FFBF3C"/>
<path d="M48.8011 68.6744C47.5223 68.3967 46.314 68.1501 45.1165 67.8548C44.9512 67.8142 44.729 67.5365 44.7277 67.3658C44.702 65.0019 44.7101 62.6381 44.7101 60.1875C46.0024 60.4828 47.2392 60.7524 48.4638 61.064C48.606 61.1005 48.7849 61.3701 48.7862 61.534C48.8065 63.8762 48.8011 66.2184 48.8011 68.6744Z" fill="#FFBF3C"/>
<path d="M42.6781 67.3062C41.3641 67.0122 40.1436 66.7467 38.9298 66.4514C38.8147 66.4229 38.6684 66.2048 38.667 66.0734C38.6494 64.3883 38.6548 62.7017 38.6548 60.9258C39.9553 61.2319 41.1962 61.5151 42.4275 61.8307C42.5373 61.8591 42.6646 62.0894 42.6659 62.2276C42.6822 63.8681 42.6768 65.5085 42.6768 67.3062H42.6781Z" fill="#FFBF3C"/>
<path d="M32.4167 61.8091C33.8486 62.141 35.2127 62.458 36.566 62.7722V65.9678C35.1599 65.6522 33.7904 65.3461 32.4167 65.0372V61.8104V61.8091Z" fill="#FFBF3C"/>
</svg>
