<?xml version="1.0" encoding="UTF-8"?><svg id="b" xmlns="http://www.w3.org/2000/svg" viewBox="0 0 342.34 483.01"><defs><style>.d{fill:#474747;}</style></defs><g id="c"><path class="d" d="M223.04,412.83c0,.36,0,1.26,0,2.17,0,13.64-.05,27.29.03,40.93.02,3.76-1.41,6.27-4.73,8.15-10.01,5.67-19.92,11.51-29.82,17.37-2.61,1.54-5.18,1.92-8.14,1.2-15.95-3.92-31.93-7.71-47.89-11.58-6.16-1.49-8.02-3.92-8.03-10.3,0-22.82,0-45.65,0-68.47,0-.83,0-1.66,0-2.69-6.53-1.49-12.97-2.93-19.4-4.42-12.16-2.83-24.34-5.61-36.47-8.55-9.08-2.2-14.62-9.71-14.41-18.13.33-13.38.09-26.77.09-40.34-7.08-1.6-14.08-3.17-21.08-4.75-5.97-1.34-11.95-2.65-17.91-4.04-6.99-1.63-14.18-10-14.54-17.36-.37-7.63-.45-15.29-.46-22.93-.04-40.34-.72-80.7.21-121.02.8-34.7,12.03-66.04,35.76-92.14,11.2-12.32,25.18-20.58,40.55-26.54,18.74-7.26,37.51-14.45,56.38-21.37C150.25,1.78,167.98-.85,186.14.24c29.18,1.76,55.46,11.77,79.11,28.75,26.43,18.98,45.89,43.65,59.33,73.19,7.43,16.34,12.85,33.33,15.5,51.08,1.25,8.37,2.1,16.88,2.13,25.33.2,46.99.1,93.99.1,140.98,0,7.25-3.15,12.6-9.78,15.67-7.84,3.62-15.71,7.17-23.62,10.64-1.55.68-2.05,1.52-2.02,3.2.11,6.23,0,12.46.06,18.7.07,7.21-2.83,12.13-9.79,15.08-21.07,8.92-41.96,18.27-63.01,27.24-3.29,1.4-7.04,1.75-11.11,2.72ZM271.67,271.54h0c0-20.63-.12-41.26.04-61.9.11-14.47-1.78-28.65-5.44-42.6-7.63-29.08-20.78-55.34-40.24-78.39-17.37-20.56-38.46-36.01-63.23-46.37-18.98-7.94-38.71-11.93-59.26-8.61-22.45,3.63-42.43,12.91-58.53,29.18-23.67,23.91-34.45,53.47-35.54,86.64-.64,19.52-.18,39.07-.18,58.61,0,26.27,0,52.55.05,78.82.02,7.62,3.68,12.32,11.11,14.08,12.15,2.89,24.31,5.68,36.51,8.35,37.41,8.19,74.84,16.27,112.25,24.47,29.87,6.55,59.73,13.19,89.57,19.87,8.18,1.83,13.04-3.76,12.98-10.4-.22-23.91-.09-47.83-.09-71.75ZM63.86,320.49c0,1.11,0,2.02,0,2.93,0,11.62,0,23.24,0,34.86,0,5.25,2.1,8.03,7.34,9.26,17.37,4.08,34.75,8.11,52.14,12.14,28.25,6.54,56.5,13.07,84.75,19.58,5.71,1.32,11.42,2.7,17.19,3.68,3.84.66,7.32-2.38,7.35-6.18.09-12.46.06-24.93-.04-37.39,0-.65-.93-1.68-1.62-1.88-2.74-.76-5.56-1.24-8.34-1.86-20.2-4.48-40.4-9-60.61-13.45-20.62-4.54-41.26-8.99-61.88-13.53-12.02-2.65-24.03-5.4-36.28-8.16ZM134.12,391.48v70.03c15.28,3.72,30.54,7.44,46,11.21v-70.86c-15.21-3.43-30.48-6.87-46-10.38Z"/><path class="d" d="M28.27,213.23c0,20.47,0,40.93,0,61.4,0,4.26.98,5.57,5.1,6.46,32.76,7.11,65.54,14.15,98.29,21.32,26.85,5.88,53.66,11.92,80.5,17.86,12.76,2.82,25.55,5.55,38.31,8.34,1.13.25,2.22.66,3.33,1,2.99.9,4.25,2.87,3.61,5.66-.45,1.96-3,3.33-5.52,2.85-6.91-1.34-13.83-2.65-20.71-4.12-28.68-6.14-57.36-12.3-86.02-18.53-28.01-6.08-56-12.24-83.99-18.4-10.07-2.22-20.1-4.61-30.17-6.79-6.39-1.38-11.47-7.07-11.44-14.22.15-40.34.06-80.68.03-121.02-.02-23.93,5.7-46.25,18.96-66.33,14.86-22.5,35.47-36.89,61.93-42.44,19.64-4.12,38.57-.8,56.94,6.56,11.51,4.62,22.18,10.79,32.25,17.99.94.67,1.85,1.52,2.45,2.49,1.54,2.49.48,5.27-2.35,5.96-2.12.51-4.15.45-6.18-1.03-15.17-11.09-31.81-19.05-50.41-22.33-14.42-2.54-28.58-.84-42.45,3.75-29.09,9.62-46.4,30.55-56.13,58.62-4.04,11.65-5.99,23.78-6.1,36.1-.17,19.62-.04,39.24-.04,58.86-.07,0-.14,0-.2,0Z"/><path class="d" d="M241.22,170.68c0,10.36-.02,20.71,0,31.07.02,6.97-3.99,10.36-10.9,9.04-14.98-2.86-29.96-5.8-44.94-8.67-20.17-3.86-40.34-7.71-60.52-11.51-19.61-3.69-39.23-7.33-58.86-10.97-2.56-.47-5.14-.82-7.72-1.15-4.84-.63-8.49-4.75-8.5-10.03-.04-21.05-.03-42.11.06-63.16.03-6.32,4.38-9.58,10.51-8.46,15.67,2.86,31.37,5.59,47.06,8.4,17.5,3.13,34.98,6.3,52.48,9.42,14.7,2.62,29.4,5.17,44.1,7.77,9.33,1.65,18.63,3.53,27.99,4.93,6.11.91,9.15,6.41,9.19,11.23.08,10.69.03,21.39.03,32.08,0,0,.01,0,.02,0ZM232.51,202.19c.04-.66.11-1.31.11-1.96.01-19.87.02-39.74.03-59.61,0-4.09-.31-4.36-4.46-5.09-13.46-2.37-26.91-4.77-40.36-7.18-16.67-2.98-33.32-6-49.99-8.98-18.57-3.32-37.14-6.6-55.71-9.91-7.82-1.39-15.64-2.8-23.65-4.23v64.1c57.98,10.94,115.95,21.88,174.04,32.85Z"/><path class="d" d="M142.09,243.62c6.25,1.26,12.24,2.48,18.23,3.68,2.84.57,3.34,1.93,1.72,4.34-9.04,13.44-18.05,26.89-27.07,40.35-.78,1.16-4.36,2.12-5.53,1.04-.62-.58-.63-2.25-.37-3.29,2.43-9.73,4.97-19.43,7.55-29.39-4.22-.83-8.31-1.63-12.39-2.42-1.81-.35-3.62-.69-5.44-1.02-2.54-.46-3.23-1.8-1.85-3.92,6.85-10.56,13.73-21.1,20.63-31.62,1.8-2.74,3.68-5.42,5.62-8.06.87-1.19,1.82-2.62,3.69-1.63,1.71.91,1.5,2.42,1.16,3.96-1.89,8.58-3.78,17.16-5.66,25.74-.14.65-.17,1.32-.29,2.24Z"/></g></svg>