<?xml version="1.0" encoding="UTF-8"?><svg id="b" xmlns="http://www.w3.org/2000/svg" viewBox="0 0 440.55 431.92"><defs><style>.d{fill:#474747;}</style></defs><g id="c"><path class="d" d="M166.28,199.66c0-5.65.02-11.05,0-16.44-.02-5.79.24-6.12,5.91-6.72v-8.33c-2.53-.62-5.96-.89-5.86-4.53.1-3.54,3.46-2.72,5.89-3.08v-7.86c-1.85-.9-3.61-1.61-5.2-2.6-.51-.31-.88-1.41-.77-2.05.59-3.44,3.44-3.21,6.14-3.33v-7.94c-2.66-.98-6.06-1.02-6.06-4.88,0-2.17,1.92-3.24,5.98-3.66.29-2.99.46-6.06.9-9.08.93-6.55.99-6.54,7.9-6.88,0-3.97,0-7.96,0-11.96,0-.94-.02-1.89.02-2.83.13-2.53,1.5-4.08,3.64-4.15,2.29-.08,3.8,1.41,3.86,4.15.08,3.68-.05,7.37-.09,11.06-.01,1.1,0,2.21,0,3.59.97.06,1.87.13,2.78.18,3.26.18,4.67,1.36,5.18,4.54.6,3.71,1.13,7.44,1.73,11.39,2.4.57,5.32.75,5.01,4.59-.29,3.68-3.35,3-5.49,3.73v7.42c5.08.92,5.51,1.27,5.47,4.29-.04,2.78-.76,3.3-5.53,3.94v7.33c4.64.86,5.57,1.58,5.55,4.28-.01,2.56-1.27,3.55-5.76,4.4v8.31c.61,0,1.19-.03,1.77,0,3.15.19,4.44,1.52,4.45,4.68.02,6.08,0,12.16,0,18.43h22.58c0-5.54.01-11.01,0-16.47-.02-6.03.01-6.07,5.92-6.66v-8.32c-3.96-.72-5.94-2.1-5.85-4.31.17-3.89,3.44-2.97,5.88-3.43v-7.51c-1.94-1.06-3.72-1.89-5.33-2.99-.45-.31-.6-1.45-.49-2.14.53-3.28,3.23-2.96,5.77-3.12v-7.75c-2.67-.74-6.16-.64-5.83-4.89.17-2.21,1.12-2.78,5.89-3.55.34-3.41.53-6.91,1.09-10.34.79-4.87,1.39-5.25,6.33-5.37.41,0,.82-.07,1.55-.14,0-4.35,0-8.61,0-12.87,0-.94-.02-1.89,0-2.83.07-2.28,1.35-3.46,3.53-3.6,2.06-.14,3.68,1.47,3.71,3.7.06,4.29.02,8.58.02,12.86v2.37c.42.2.58.34.72.34,6.13-.29,6.59,1.88,7.37,7.18.31,2.12.51,4.25.72,6.38.14,1.49.55,2.55,2.38,2.68,1.85.13,3.18.98,3.28,3.2.09,2.22-1.01,3.62-2.95,3.84-2.43.27-2.92,1.44-2.74,3.54.13,1.52.03,3.06.03,4.63,2.47.69,5.59.09,5.78,3.89.21,4.09-2.89,3.98-5.61,4.37v7.36c1.68.63,3.4,1.05,4.83,1.93.54.33.61,1.71.6,2.6-.02,2.4-1.54,3.44-5.52,3.86v8.59c.58,0,1.07,0,1.55,0,3.41.08,4.51,1.21,4.51,4.73,0,5.15-.02,10.29-.03,15.44,0,.92,0,1.84,0,2.88h59.68c2.85-15.3,5.71-30.6,8.61-46.17h-31.72c0,3.3,0,6.68,0,10.06,0,1.2.03,2.4-.01,3.6-.08,2.31-1.47,3.76-3.61,3.82-2.34.07-3.93-1.47-3.97-4.04-.06-4.37-.02-8.74-.02-13.28-2.34-.48-4.75-1-4.87-4.15-.09-2.35,1.32-3.47,3.19-4.46,14.35-7.61,28.65-15.3,43.01-22.89,1.62-.86,2.22-1.82,2.38-3.7.56-6.82,1.46-13.62,2.14-20.43.5-5.03.86-10.07,1.3-15.34h-30.78c0,4.15.01,8.33,0,12.5,0,3.02-1.41,4.76-3.79,4.76-2.42,0-3.84-1.68-3.88-4.74-.05-3.52-.07-7.03,0-10.55.03-1.31-.24-2.06-1.6-2.68-3.26-1.47-3.47-5.34-.43-7.38,1.48-1,3.15-1.7,4.75-2.53,12.07-6.25,24.15-12.47,36.18-18.8,1-.52,1.94-1.66,2.35-2.73,5.93-15.73,11.77-31.49,17.59-47.26.71-1.94,1.69-3.34,3.97-3.35,2.35,0,3.46,1.35,4.22,3.4,5.79,15.69,11.62,31.37,17.53,47.02.43,1.13,1.46,2.3,2.53,2.86,13.18,6.89,26.43,13.66,39.64,20.51,1.11.57,2.33,1.28,3.01,2.26,1.92,2.78.29,5.73-3.7,6.71,0,4.23.01,8.51,0,12.79-.01,2.6-1.46,4.36-3.58,4.45-2.34.09-3.99-1.59-4.03-4.33-.07-4.27-.02-8.55-.02-12.99h-30.97c.18,2.81.28,5.59.56,8.36.99,9.62,1.99,19.24,3.14,28.84.1.82,1.19,1.75,2.04,2.21,14.3,7.7,28.65,15.29,42.92,23.03,1.36.74,2.79,2.19,3.21,3.6.81,2.71-.84,4.17-4.73,4.88,0,4.34.02,8.68,0,13.02-.01,1.81-.39,3.67-2.39,4.06-1.26.24-3.02-.01-3.96-.78-.87-.7-1.26-2.37-1.31-3.63-.16-4.11-.06-8.22-.06-12.53h-31.33c.63,4.02,1.2,8.03,1.9,12.01,3.51,19.76,7.01,39.53,10.62,59.28,3.63,19.9,7.39,39.79,11.09,59.68.14.76.31,1.52.34,2.28.19,5.14,2.7,8.91,6.6,12.09,2.51,2.05,4.61,4.61,7.01,6.81,1.43,1.32,2.07,2.77,2.06,4.72-.04,38.77-.04,77.53-.06,116.3,0,3.57-1.49,5.01-5.01,5.01-142.03,0-284.06,0-426.09,0-3.58,0-5-1.37-5-4.94,0-38.85-.02-77.71.06-116.56,0-1.3.65-2.89,1.54-3.84,3.39-3.63,6.98-7.09,10.55-10.54,2.31-2.23,4.63-2.33,7.02-.11,3.84,3.55,7.61,7.18,11.22,10.96.8.84,1.08,2.46,1.09,3.73.09,9.08.05,18.16.05,27.46h14.55c0-3.06-.42-6.28.12-9.32.5-2.82,1.98-5.48,3.18-8.15.21-.46,1.21-.56,2.1-.93v-89.56c-2.42,0-4.78,0-7.14,0-3.58,0-4.77-1.18-4.77-4.76,0-6.86-.01-13.72,0-20.58,0-3.66,1.28-4.94,4.9-4.94,19.64,0,39.28,0,58.92,0,.93,0,1.85,0,3.06,0,0-5.58,0-10.96,0-16.33q0-6.15,5.96-7.08v-8.25c-2.64-.52-5.84-.88-5.85-4.4-.01-3.75,3.6-2.82,5.87-3.61v-7.87c-2.65-.47-5.99-.4-5.89-4.19.09-3.61,3.35-3.17,5.87-3.6v-7.68c-4.39-.96-6.05-2.26-5.95-4.61.09-2.25,1.52-3.19,5.93-3.86.38-3.6.66-7.24,1.18-10.85.65-4.5,1.46-5.1,5.99-5.09.42,0,.84,0,1.61,0,0-3.17,0-6.22,0-9.27,0-1.8-.01-3.6.02-5.4.05-3.01,1.33-4.46,3.8-4.4,2.27.06,3.56,1.62,3.58,4.37.02,4.72.03,9.43.05,14.15,0,.15.14.31.21.46,6.77.71,7.42,1.43,8.02,8.29.24,2.72.71,5.42,1.09,8.24,2.4.78,6.1.17,5.51,4.41-.49,3.53-3.6,2.7-5.99,3.21v7.89c2.44.6,6.14-.12,5.58,4.36-.42,3.34-3.12,3.08-5.56,3.44v7.85c4.74.61,5.56,1.18,5.57,3.83.01,2.59-1.38,3.69-5.54,4.23v8.29c.16.1.3.25.44.25,5.14.24,5.66.78,5.66,5.91,0,5.64,0,11.29,0,17.11h22.65ZM87.43,338c0-1.26,0-2.29,0-3.31,0-24.96,0-49.91,0-74.87,0-3.7,1.21-4.89,4.92-4.89,42.62,0,85.25,0,127.87,0,4.01,0,5.11,1.12,5.12,5.21,0,24.87,0,49.74,0,74.61,0,.69-.18,1.45.05,2.04.25.62.89,1.08,1.37,1.61l.63-.51c0-2.82-.31-5.69.09-8.45.39-2.71,1.3-5.4,2.37-7.94.75-1.78,2.38-1.81,3.35-.17,1.6,2.72,2.93,5.53,2.59,8.92-.26,2.6-.05,5.25-.05,7.81h3.4c0-1.18,0-2.19,0-3.21,0-7.89.07-15.78-.03-23.67-.03-2.4.58-4.22,2.43-5.86,3.53-3.13,6.92-6.41,10.24-9.76.73-.74,1.28-2.02,1.29-3.05.07-19.9.05-39.79.05-59.69,0-.89,0-1.79,0-2.61H59.14v107.6h14.36c0-2.91-.29-5.76.08-8.52.36-2.64,1.2-5.28,2.26-7.74.81-1.88,2.51-1.82,3.51-.06,1.49,2.61,2.72,5.28,2.48,8.47-.2,2.61-.04,5.25-.04,8.02h5.64ZM182.14,337.8h17.7c0-2.96-.28-5.72.08-8.4.35-2.65,1.11-5.31,2.13-7.79.8-1.96,2.42-1.96,3.45-.15,1.62,2.84,2.86,5.77,2.5,9.23-.25,2.42-.05,4.88-.05,7.37h9.94v-75.65h-59.03v129.79h15.08v-46.71c-2.65-.29-6.36.59-6.49-3.51-.14-4.29,3.68-3.57,6.45-3.89,0-2.98-.28-5.83.08-8.59.35-2.65,1.12-5.31,2.17-7.77.92-2.17,2.82-2.17,3.74.02,1.06,2.53,1.8,5.27,2.18,7.99.36,2.6.08,5.29.08,8.04ZM94.93,262.36v75.6h6.28c0-3.14-.29-6.08.09-8.94.34-2.55,1.17-5.12,2.24-7.48.89-1.97,2.81-1.93,3.64.07,1.06,2.55,1.92,5.28,2.3,8,.39,2.74.08,5.57.08,8.21h17.51c0-2.86-.28-5.39.07-7.82.41-2.82,1.15-5.65,2.19-8.3.81-2.07,2.7-2.1,3.56-.05,1.1,2.62,1.93,5.42,2.35,8.23.39,2.58.08,5.26.08,8.08,2.51.13,4.82.17,7.11.39,2.08.2,3.14,1.35,3.19,3.58.05,2.22-1.03,3.15-3.04,3.29-2.36.16-4.73.24-7.16.36v46.64h15.86v-129.85h-56.35ZM288.47,338.09c0-3.27-.3-6.29.09-9.23.34-2.55,1.29-5.06,2.29-7.46.61-1.47,2.05-1.68,3.04-.26,1.78,2.53,3.22,5.2,2.9,8.52-.27,2.69-.29,5.4-.42,8.12h17.5c0-3.2-.08-6.26.03-9.33.05-1.42.47-2.83.72-4.25.26-1.41.75-2.81.75-4.22,0-29.06-.04-58.11-.07-87.17,0-.82,0-1.64,0-2.5h-52.73c0,1.13,0,2.14,0,3.15.09,19.46.42,38.91.13,58.36-.09,5.97.76,10.85,5.85,14.43,1.73,1.22,2.15,3.05,2.12,5.19-.12,7.97-.05,15.94-.05,23.91,0,.9,0,1.8,0,2.72h17.85ZM47.08,222.51h210.9v-15.3H47.08v15.3ZM263.17,424.67v-111.77h-16.55v111.77h16.55ZM412.24,312.84v111.76h16.23v-111.76h-16.23ZM7.69,312.98v111.57h16.46v-111.57H7.69ZM363.95,308.08c13.4-10.25,26.65-20.38,40.34-30.86h-81.87c14.05,10.44,27.69,20.58,41.53,30.86ZM363.74,238.36c-12.84,10.39-25.57,20.69-38.7,31.31h77.74c-13.2-10.59-26.01-20.86-39.04-31.31ZM270.76,345.29v61.59h17.76v-61.59h-17.76ZM365.18,406.78v-61.33h-17.77v61.33h17.77ZM296.4,406.6h17.39v-61.27h-17.39v61.27ZM339.51,406.81v-61.34c-3.61,0-7.03-.14-10.43.04-2.94.16-6.36,4.14-6.36,7.06.02,17.13.04,34.26.06,51.39,0,.91,0,1.82,0,2.86h16.73ZM369.98,312.93c6.15,4.61,12.22,9.15,18.42,13.8.64-1.57,1.15-3.01,1.81-4.38,1.29-2.66,2.63-2.72,4.6-.51,2.53,2.84,3.01,6.07,2.67,9.74-.29,3.06,3.89,6.33,7.14,5.81,0-7.07.39-14.2-.12-21.26-.42-5.83,1.01-10.39,5.82-13.75,3.6-2.51,4.75-5.65,3.46-10.01-1.06-3.59-1.43-7.39-2.16-11.39-14.1,10.82-27.8,21.33-41.63,31.94ZM373.18,345.33v61.26h15.82v-61.26h-15.82ZM322.84,338.46c2.05-.81,3.72-1.24,5.15-2.08,1.83-1.08,3.44-2.53,5.2-3.75,3.58-2.48,7.09-4.98,7.98-9.67.06-.32.31-.6.49-.89,1.35-2.27,2.02-2.37,4.22-.49,3.79-2.82,7.6-5.66,11.74-8.73-11.7-8.75-23.13-17.31-34.78-26.02v51.64ZM408.49,264.58c-3.33-18.25-6.58-36.06-9.89-54.21-9.78,7.87-19.23,15.47-28.88,23.23,12.93,10.33,25.67,20.52,38.78,30.98ZM127.15,392.22v-46.69h-17.81v46.69h17.81ZM199.76,392.33v-46.83h-17.54v46.83h17.54ZM31.67,345.58v47.01h14.44v-47.01h-14.44ZM322.96,261.55c11.73-9.42,23.24-18.67,34.98-28.09-7.19-5.64-14.06-11.02-21.28-16.68,0,3.53.03,6.36,0,9.19-.04,3.34-1.01,4.28-4.29,4.27-1.63,0-3.27-.14-4.88.04-.63.07-1.56.7-1.71,1.25-2.59,9.71-3.89,19.56-2.81,30.02ZM59.29,345.36v47.24h14.05v-47.24h-14.05ZM390.9,199.68c-9.27-7.76-18.14-15.17-27.04-22.62-9.02,7.55-17.86,14.96-27.01,22.62h54.05ZM336.6,207.2c9.44,7.39,18.35,14.36,27.32,21.38,8.84-7.09,17.55-14.07,26.66-21.38h-53.99ZM208.03,345.51v46.69h9.93v-46.69h-9.93ZM396.79,345.35v61.26h7.81c0-1.43,0-2.7,0-3.97,0-16.97.02-33.95.02-50.92,0-4.8-2.76-7.11-7.83-6.37ZM173.87,414.12h-38.9v10.47h38.9v-10.47ZM369.83,172.23c8.53,7.12,16.84,14.06,25.69,21.46-2.24-12.92-4.36-25.13-6.52-37.63-6.53,5.51-12.74,10.75-19.17,16.17ZM357.88,172.19c-6.49-5.41-12.67-10.56-19.03-15.85-2.24,12.49-4.4,24.53-6.69,37.31,8.86-7.39,17.17-14.32,25.72-21.46ZM113.99,183.97v15.68h22.11v-15.68h-22.11ZM196.19,199.7v-15.63h-22.32v15.63h22.32ZM255.88,184.08h-22.08v15.63h22.08v-15.63ZM101.13,392.49v-46.9h-6.15v46.9h6.15ZM381.98,145.67c-6.34-5.91-12.13-11.31-17.97-16.75-5.9,5.53-11.73,11-17.86,16.75h35.83ZM135.42,406.59h38.39v-6.91h-38.39v6.91ZM347.33,337.75h17.9c.55-5.88-1.3-11.9,2.77-16.97-1.55-1.18-2.87-2.19-4.11-3.14-5.16,3.79-10.07,7.35-14.9,11.01-.72.55-1.5,1.49-1.58,2.32-.22,2.19-.07,4.42-.07,6.78ZM377.82,52.25c-1.33-3.69-2.49-7.06-3.8-10.36-.2-.5-1.11-1-1.7-1.01-5.98-.07-11.96-.04-18.1-.04-1.38,3.77-2.75,7.49-4.19,11.41h27.8ZM87.26,392.43v-46.76h-5.48v46.76h5.48ZM380.78,153.15h-34.05c5.94,4.83,11.54,9.38,17.25,14.02,5.53-4.61,10.91-9.1,16.8-14.02ZM341.34,139.53c.18.18.35.36.53.54,5.17-5.75,10.33-11.5,15.58-17.35-3.58-3.38-7.96-7.51-12.47-11.77-1.24,9.71-2.44,19.14-3.64,28.57ZM227.23,424.64v-10.54h-19.5v10.54h19.5ZM101.13,424.67v-10.58h-19.73v10.58h19.73ZM369.73,123.65c5.58,5.37,10.99,10.58,16.71,16.09-1.16-9.84-2.26-19.14-3.4-28.74-4.45,4.23-8.76,8.33-13.31,12.65ZM54.13,424.63h19.26v-10.27h-19.26v10.27ZM334.93,130.21c-9.5,5.15-18.71,10.15-28.48,15.45h26.32c.72-5.14,1.41-10.11,2.16-15.45ZM395.29,145.58h25.2c.03-.13.05-.26.08-.4-8.94-4.77-17.88-9.55-27.26-14.56.7,5.31,1.34,10.12,1.98,14.95ZM339.87,424.67v-10.56h-17.98v10.56h17.98ZM288.58,414.06h-17.8v10.52h17.8v-10.52ZM126.97,414.15h-17.81v10.41h17.81v-10.41ZM347.46,414.07v10.53h17.69v-10.53h-17.69ZM199.55,424.64v-10.49h-17.56v10.49h17.56ZM296.4,424.63h17.35v-10.55h-17.35v10.55ZM377.47,98.32c.1-.19.21-.37.31-.56-4.51-4.28-9.01-8.55-13.56-12.86-4.03,4.25-8.24,8.69-12.72,13.42h25.97ZM373.2,424.58h16.02v-10.49h-16.02v10.49ZM350.61,105.83c4.73,4.44,9.08,8.52,13.48,12.64,4.5-4.12,9-8.22,13.83-12.64h-27.31ZM363.76,72.61c4.54-4.21,9-8.34,13.63-12.63h-25.49c4.31,4.59,8.38,8.92,11.86,12.63ZM235.66,345.56v47.11h3.31v-47.11h-3.31ZM46.09,414.22h-14.45v10.41h14.45v-10.41ZM346.63,92.5c4.43-4.73,8.51-9.09,12.7-13.55-3.94-4.18-7.75-8.22-11.85-12.57-.29,8.95-.56,17.31-.84,26.13ZM412.02,74.72c-8.22-4.3-15.96-8.35-23.88-12.5v12.5h23.88ZM340.1,62.29c-8.17,4.12-15.97,8.05-23.77,11.99.05.14.1.29.16.43h22.97c.21-4.06.41-7.97.64-12.42ZM227.33,399.7h-19.3v6.87h19.3v-6.87ZM101.21,399.73h-19.35v6.9h19.35v-6.9ZM73.36,406.95v-6.99h-19.15v6.99h19.15ZM109.24,399.68v6.91h17.81v-6.91h-17.81ZM363.85,14.99c-2.43,6.42-4.61,12.18-6.82,18.02h13.85c-2.31-5.92-4.53-11.63-7.02-18.02ZM199.51,399.73h-17.27v6.9h17.27v-6.9ZM380.64,90.38v-22.89c-3.98,4.22-7.35,7.79-10.8,11.46,3.69,3.9,7.3,7.72,10.8,11.43ZM46,407.05v-7.19h-14.41v7.19h14.41ZM388.86,337.79c.17-.3.33-.6.5-.9-5.48-4.11-10.96-8.22-15.99-11.99,0,1.98.04,4.06-.01,6.14-.06,2.2-.21,4.4-.33,6.76h15.83ZM227.26,392.24v-46.6c-2.2-.64-1.92.79-1.92,1.98,0,9.01,0,18.01,0,27.02,0,5.32.02,10.64,0,15.95,0,1.28.08,2.32,1.92,1.65ZM249.65,168.12h-10.03v8.49h10.03v-8.49ZM250.16,128.7c-.34-3.22-.65-6.09-.97-9.14-2.61,0-5-.08-7.38.06-.53.03-1.4.74-1.48,1.24-.38,2.58-.56,5.19-.81,7.84h10.64ZM180.61,119.56c-.33,3.08-.65,6.08-.96,9.01h10.71c-.38-3.13-.72-5.99-1.08-9.01h-8.66ZM130,176.59v-8.47h-9.98v8.47h9.98ZM179.8,176.54h9.85v-8.49h-9.85v8.49ZM249.65,144.66v-8.02h-10.09v8.02h10.09ZM179.66,160.47h10.02v-8.15h-10.02v8.15ZM120.05,152.35v8.09h9.99v-8.09h-9.99ZM239.6,160.46h10.12v-8h-10.12v8ZM129.98,144.38v-7.99h-10.06v7.99h10.06ZM120.71,119.7c-.31,2.87-.62,5.71-.93,8.62h10.54c-.25-2.98-.48-5.74-.72-8.62h-8.89ZM396.66,424.57h7.82v-10.49h-7.82v10.49ZM189.64,144.29v-7.86h-9.95v7.86h9.95ZM238.89,424.68v-10.55h-3.59v10.55h3.59ZM235.78,399.73v6.83h3.2v-6.83h-3.2Z"/><path class="d" d="M302.56,108.3c-.69,1.58-.95,2.81-1.65,3.7-7.12,9.11-15.12,17.28-25.15,23.24-1.93,1.15-3.85,1.45-5.59-.37-1.86-1.95-1.46-4.26.98-6.12,4.29-3.25,8.8-6.28,12.78-9.88,3.61-3.25,6.65-7.14,9.93-10.75.63-.7,1.13-1.68,1.92-2.04,1.27-.59,2.93-1.34,4.06-.96,1.14.38,1.84,2.07,2.72,3.17Z"/><path class="d" d="M289.69,255.44c4.02,0,8.05-.01,12.07,0,2.59,0,4.23,1.39,4.36,3.62.13,2.3-1.55,3.96-4.3,4.06-2.74.1-5.48.03-8.22.04-5.57,0-11.13.02-16.7,0-2.95,0-4.21-1.09-4.26-3.57-.06-2.56,1.37-4.02,4.2-4.06,4.28-.06,8.56-.02,12.84-.02v-.08Z"/><path class="d" d="M289.54,268.33c4.02,0,8.04-.03,12.06.01,2.81.03,4.4,1.3,4.55,3.46.16,2.41-1.2,4.05-4.18,4.1-8.64.16-17.28.16-25.91.03-2.07-.03-3.39-1.5-3.35-3.78.04-2.14,1.42-3.63,3.75-3.68,4.36-.1,8.72-.03,13.09-.03,0-.04,0-.08,0-.12Z"/><path class="d" d="M288.94,250.39c-4.19,0-8.39.03-12.58-.01-2.48-.02-3.92-1.45-3.89-3.74.03-2.14,1.44-3.53,3.79-3.58,8.47-.16,16.94-.3,25.41-.4,2.76-.03,4.46,1.53,4.44,3.89-.01,2.16-1.73,3.68-4.33,3.71-4.28.04-8.56.01-12.84.01v.12Z"/></g></svg>