<?xml version="1.0" encoding="UTF-8"?><svg id="b" xmlns="http://www.w3.org/2000/svg" viewBox="0 0 437.82 465.88"><defs><style>.d{fill:#49A4EF;}</style></defs><g id="c"><path class="d" d="M232.67,248.84c2.46,11.41.85,21.59-7.49,29.9-1.95,1.94-4.67,3.09-6.95,4.74-.67.49-1.42,1.38-1.47,2.14-.18,2.63-.07,5.27-.07,7.73,10.73,2.29,21.16,4.47,31.57,6.75,4.25.93,5.34,2.5,5.31,6.81-.21,29.33-.43,58.65-.58,87.98-.02,3.08-1.09,5.03-3.91,6.49-6.3,3.25-12.53,6.68-18.63,10.29-3.82,2.26-7.55,3.51-11.87,1.65-.8-.34-1.78-.28-2.85-.43,0,3.74-.19,7.24.15,10.7.07.76,1.95,1.66,3.13,1.93,6.48,1.5,12.99,2.9,19.52,4.2,9.05,1.81,8.53,2.67,8.47,10.58-.08,10.28.56,9.34-8.87,13.58-7.63,3.43-15.22,6.96-22.8,10.51-2.94,1.38-5.76,1.93-9.11,1.12-19.92-4.84-39.89-9.46-59.84-14.16-2.55-.6-4.02-2.38-3.99-4.9.03-2.91.11-5.83.17-8.74.06-2.73,1.3-4.71,3.78-5.9,8.25-3.93,16.46-7.94,24.76-11.76,2.06-.95,3-2,2.86-4.39-.23-4.01-.06-8.05-.06-12.25-5.42-1.19-10.75-2.34-16.07-3.52-6.08-1.36-12.16-2.76-18.24-4.11-2.55-.57-3.78-2.13-3.78-4.72.06-30.19.12-60.37.18-90.56,0-2.63,1.09-4.56,3.52-5.76,7.67-3.78,15.38-7.49,22.94-11.48,3.21-1.7,6.13-.66,9.19-.09.91.17,1.82.33,3.02.54,0-2.5.25-4.82-.12-7.02-.16-.98-1.46-1.97-2.47-2.58-4.17-2.5-8.63-4.55-12.6-7.32-7.25-5.06-10.38-12.49-10.76-21.14-.17-4.02-.24-8.07.02-12.09.19-2.89-1.06-3.91-3.62-4.44-9.77-2.03-19.54-4.11-29.28-6.3-26.96-6.08-53.9-12.24-80.85-18.33-8.15-1.84-16.33-3.6-24.5-5.35-2.38-.51-4.26-1.59-5.47-3.8-1.31-2.4-2.74-4.74-4.19-7.05-1.37-2.17-.81-4.26.06-6.37,6.63-16.1,13.23-32.21,19.9-48.3,6.41-15.45,12.99-30.83,19.31-46.32,10.83-26.55,21.55-53.14,32.23-79.75,3.27-8.14,3.92-8.49,12.44-6.59,25.75,5.74,51.52,11.39,77.29,17.04,26.36,5.77,52.73,11.49,79.09,17.24,31.79,6.94,63.58,13.86,95.36,20.84,11.84,2.6,23.64,5.35,35.48,7.94,4.25.93,8.57,1.54,12.83,2.44.95.2,2.06.82,2.59,1.6,1.78,2.61,3.31,5.39,5,8.06,1.18,1.87,1.41,3.63.5,5.78-9.93,23.5-19.78,47.03-29.65,70.55-10.63,25.34-21.26,50.68-31.91,76.01-4.57,10.86-9.17,21.69-13.8,32.52-1.85,4.33-4.39,5.58-8.95,4.57-25-5.54-50.01-11.08-75.01-16.62-.23-.05-.47-.05-.91-.09ZM219.79,404.4v-82.55c-1-.24-1.66-.42-2.32-.56-12.52-2.63-25.06-5.15-37.55-7.92-10.5-2.33-20.93-4.95-31.39-7.42-3.02-.71-3.47-.36-3.55,2.73-.15,5.74-.38,11.48-.4,17.22-.06,19.12-.04,38.25-.07,57.37,0,4.25.57,4.93,4.72,5.83,17.77,3.86,35.52,7.78,53.28,11.66,5.58,1.22,11.17,2.36,17.28,3.64ZM324.99,194.07c-4.75-1.08-9.3-2.12-13.85-3.15-16.72-3.77-33.45-7.51-50.16-11.32-3.89-.89-4.07-.86-5.64,2.96-4.22,10.26-8.48,20.49-12.69,30.75-2.45,5.98-4.84,11.98-7.32,18.15,22.69,5,45.05,9.93,67.62,14.91,7.34-17.42,14.61-34.69,22.03-52.3ZM285.09,111.49c.8.23,1.59.53,2.4.69,11.94,2.46,23.9,4.86,35.83,7.37,8.85,1.86,17.69,3.81,26.5,5.86,2.12.49,3.04.06,3.9-2.06,4.04-9.96,8.33-19.82,12.5-29.73,2.74-6.51,5.44-13.05,8.27-19.85-22.74-5.03-45.16-10-67.73-14.99-7.29,17.72-14.45,35.15-21.67,52.71ZM60.51,62.2c.82.25,1.43.48,2.07.62,14.92,3.26,29.83,6.52,44.75,9.77,5.33,1.16,10.66,2.32,15.99,3.46,2.4.52,3.96.15,5.06-2.62,3.61-9.11,7.62-18.07,11.43-27.1,3.07-7.28,6.06-14.6,9.21-22.18-1.4-.25-2.56-.42-3.71-.67-20.34-4.43-40.69-8.82-61-13.38-2.14-.48-2.83.07-3.55,1.88-4.23,10.61-8.58,21.18-12.86,31.77-2.45,6.07-4.87,12.15-7.38,18.45ZM260.29,170.73c.42.29.55.44.7.47,21.66,4.8,43.33,9.56,64.98,14.41,1.77.4,2.35-.23,2.96-1.73,5.93-14.35,11.93-28.67,17.91-43.01.87-2.09,1.72-4.19,2.62-6.37-.79-.27-1.34-.51-1.91-.64-21.09-4.56-42.19-9.09-63.26-13.71-1.66-.36-2.35-.09-3.04,1.54-6.91,16.34-13.93,32.64-20.95,49.04ZM248.19,177.1c-22.55-5.04-44.31-9.9-66.39-14.83-7.27,17.71-14.49,35.31-21.77,53.05,22.49,4.77,44.32,9.41,66.3,14.08,7.22-17.26,14.44-34.53,21.86-52.29ZM35.66,121.85c.88.32,1.33.54,1.81.65,20.49,4.51,40.98,8.97,61.45,13.58,2.26.51,3.19,0,4.03-2.02,6.81-16.28,13.7-32.52,20.68-49.05-22.41-5-44.58-9.94-66.81-14.9-7.11,17.4-14.08,34.44-21.15,51.74ZM107.18,146.64c-7.18,17.24-14.4,34.56-21.91,52.58,22.48,4.94,44.25,9.72,65.77,14.44,7.5-18.03,14.79-35.56,22.03-52.97-21.78-4.65-43.61-9.3-65.89-14.06ZM98.33,145.41c-1.05-.32-1.62-.54-2.2-.67-20.56-4.62-41.12-9.23-61.68-13.88-1.84-.42-2.79.11-3.51,1.87-4.81,11.85-9.71,23.67-14.59,35.5-1.94,4.71-3.88,9.43-6.01,14.6,22.33,4.83,44.29,9.58,66.36,14.35,7.25-17.37,14.41-34.52,21.62-51.78ZM223.2,40.75c-21.99-4.95-43.51-9.8-65.3-14.71-7.44,17.66-14.77,35.05-22.11,52.48,3.85.98,7.46,2.02,11.12,2.81,17.51,3.76,35.04,7.42,52.55,11.19,1.7.36,2.34-.14,2.98-1.71,4.19-10.27,8.51-20.49,12.78-30.73,2.62-6.29,5.2-12.59,7.98-19.32ZM210.47,95.01c1.12.33,1.75.57,2.4.71,20.35,4.32,40.72,8.59,61.05,13.01,1.93.42,2.64.15,3.38-1.65,6.08-14.66,12.27-29.27,18.42-43.9.8-1.91,1.52-3.86,2.31-5.88-22.05-4.91-43.77-9.74-65.69-14.63-7.28,17.43-14.51,34.72-21.87,52.34ZM110.68,138.53c.64.21.95.35,1.28.42,9.17,2.03,18.34,4.08,27.51,6.08,11.18,2.43,22.38,4.78,33.56,7.25,2.32.51,3.56-.08,4.46-2.39,1.79-4.61,3.94-9.08,5.88-13.64,4.89-11.53,9.74-23.08,14.8-35.09-22.07-4.87-43.89-9.69-65.9-14.55-7.22,17.39-14.35,34.54-21.57,51.92ZM273.1,117.76c-22.31-4.95-44.18-9.8-66.06-14.65-7.44,17.31-14.69,34.2-22.03,51.28,22.15,5,44.1,9.95,66.21,14.94,7.24-17.07,14.44-34.03,21.88-51.57ZM201.86,433.37c.17-.53.26-.69.26-.85,0-5.23.02-10.46,0-15.69q-.03-7.09-7-8.66c-4.04-.9-8.1-1.75-12.36-2.67,0,8.34-.04,16.39.06,24.44,0,.76.66,1.98,1.29,2.19,2.72.9,5.51,1.95,8.32,2.11,3.11.18,6.28-.54,9.44-.87ZM224.05,259.82c-.15-4.32-1.39-8.66-4.9-12.12-4.1-4.04-4.69-4.11-9.62-1.11-10.09,6.16-9.82,20.51-3.48,27.45,3.43,3.76,8.37,3.81,11.9.22,3.82-3.88,5.9-8.53,6.1-14.45ZM175.12,427.49c-6.62,2.68-13.3,4.8-19.53,9.19,1.7.55,2.8,1.01,3.95,1.25,15.94,3.39,31.87,6.79,47.83,10.06,1.48.3,3.31.13,4.68-.48,6.16-2.73,12.22-5.69,18.31-8.59.48-.23.88-.64,1.43-1.05-.44-.36-.66-.69-.95-.77-4.78-1.27-9.56-2.55-14.37-3.7-.54-.13-1.36.37-1.89.79-1.69,1.34-3.08,3.34-4.98,4.05-3.79,1.41-7.79,2.57-11.8,3.05-6.58.8-13.26.78-18.99-3.31-1.36-.97-2.38-2.79-2.94-4.43-.61-1.79-.51-3.82-.75-6.06ZM183.4,301.08c5.83,2.42,11.21,1.99,16.6.01,1.36-.5,1.83-1.12,1.8-2.56-.09-4.02.01-8.05-.03-12.08-.05-4.56.82-3.69-3.7-4.76-4.85-1.14-9.75-2.05-14.67-3.07v22.45ZM182.74,238.02c-7.66-1.62-15.02-3.18-22.42-4.75v10.13c7.61,1.66,15.06,3.28,22.42,4.88v-10.26ZM206.76,309.44c3.97.87,7.6,1.73,11.26,2.44,2.24.44,4.86,1.5,6.72.78,4.03-1.57,7.68-4.1,11.49-6.24-.03-.23-.06-.45-.1-.68-6.26-1.3-12.51-2.6-18.5-3.85-2.09,4.94-7.31,4.49-10.87,7.55ZM175.44,302.47c0-2.91-.1-5.72.04-8.52.07-1.41-.67-1.75-1.73-2-4.01-.93-7.87-1.75-11.65,1.18-1.97,1.53-4.59,2.22-6.91,3.33-.63.3-1.19.74-2.18,1.37,7.88,1.63,15.23,3.15,22.43,4.63Z"/><path class="d" d="M418.87,170.91c-2.67,1.59-4.8,2.91-6.99,4.15-2.59,1.48-4.31,1.22-5.85-.8-1.56-2.04-1.39-4.21.94-6.06,6.09-4.84,12.24-9.62,18.5-14.24,2.72-2,4.66-1.05,5.75,2.11,1.88,5.48,3.98,10.88,5.82,16.37.56,1.66.75,3.51.78,5.27.04,2.34-1.34,3.92-3.59,4.35-2.34.45-3.61-.99-4.38-3.06-.7-1.89-1.53-3.73-2.95-5.61-1.93,4.89-3.79,9.8-5.8,14.65-8.09,19.52-19.23,37.11-33.33,52.86-6.82,7.62-14.18,14.61-22.19,20.94-.94.74-1.92,1.43-2.94,2.05-1.7,1.04-3.49,1.16-4.92-.35-1.45-1.54-2.01-3.42-.69-5.36.57-.83,1.29-1.61,2.1-2.21,14.58-10.86,26.71-24.06,36.53-39.27,5.6-8.67,10.7-17.69,15.46-26.85,3.04-5.84,5.04-12.22,7.75-18.95Z"/><path class="d" d="M175.07,384.89c0-1.77-.31-3.6.06-5.29,1.14-5.33,2.53-10.62,3.93-16.35-3.51-.48-7.02-.97-10.54-1.45-.84-.12-1.69-.21-2.53-.34-2.17-.34-2.48-1.79-1.64-3.4,5.28-10.09,10.89-19.99,18.4-28.64.87-1,2.05-1.72,3.6-2.98.19,1.54.48,2.5.39,3.42-.54,5.36-1.09,10.72-1.81,16.05-.54,4.01-.66,3.98,3.09,5.08,3.03.89,6.06,1.74,9.05,2.75,2.29.78,2.57,1.73,1.22,3.55-5.65,7.64-11.27,15.3-17.03,22.85-1.45,1.9-3.37,3.46-5.07,5.17-.37-.14-.75-.29-1.12-.43Z"/><path class="d" d="M210.85,259.63c.01-2.24,1.76-4.36,3.56-4.32,1.8.04,3.72,2.45,3.7,4.62-.02,1.94-1.85,3.93-3.68,3.99-1.77.06-3.59-2.12-3.58-4.29Z"/></g></svg>